<svg fill="none" xmlns="http://www.w3.org/2000/svg" viewBox="0 0 200 220"><rect width="200" height="102" rx="1.463" fill="#fff"/><path d="M55.568 21.91H45.302v2.214h3.986V36h2.314V24.124h3.966V21.91Zm7.482 4.026v1.429c-.765-1.047-1.953-1.691-3.523-1.691-2.738 0-5.012 2.294-5.012 5.294 0 2.979 2.274 5.294 5.012 5.294 1.57 0 2.758-.645 3.523-1.711V36h2.174V25.936H63.05Zm-3.18 8.252c-1.812 0-3.181-1.348-3.181-3.22s1.369-3.22 3.18-3.22c1.812 0 3.18 1.348 3.18 3.22s-1.368 3.22-3.18 3.22ZM76.503 36l-3.765-5.153 3.583-4.912h-2.536l-2.315 3.18-2.315-3.18H66.64l3.583 4.892L66.44 36h2.536l2.516-3.442L73.987 36h2.517Z" fill="#35373D"/><path d="M100.302 63.91v2.214h6.441L101.872 78h2.436l4.951-12.077V63.91h-8.957Zm8.864 14.332a1.52 1.52 0 0 0 1.509-1.51c0-.846-.684-1.51-1.509-1.51-.846 0-1.51.665-1.51 1.51 0 .825.664 1.51 1.51 1.51Zm2.926-.242h9.28v-2.234h-5.838l3.18-3.18c1.349-1.37 2.396-2.839 2.396-4.59 0-2.798-2.194-4.348-4.509-4.348-1.872 0-3.643.926-4.549 2.858l1.952 1.148c.544-1.128 1.45-1.751 2.617-1.751 1.208 0 2.174.764 2.174 2.173 0 1.067-.785 2.094-1.791 3.1l-4.912 5.012V78Zm15.118-8.776h-1.772l.242-3.14h5.716V63.91h-7.85l-.543 7.568h4.106c1.53 0 2.576.846 2.576 2.255 0 1.409-1.046 2.274-2.616 2.274-1.47 0-2.436-.664-2.798-1.912l-1.993 1.147c.745 2.033 2.657 3.02 4.791 3.02 2.596 0 4.931-1.57 4.931-4.53 0-2.938-2.234-4.508-4.79-4.508Zm9.096.865c1.892 0 3.281-1.449 3.281-3.22 0-1.812-1.409-3.221-3.281-3.221-1.892 0-3.301 1.43-3.301 3.22 0 1.772 1.409 3.221 3.301 3.221Zm-.02-1.771c-.846 0-1.43-.644-1.43-1.45 0-.825.584-1.469 1.43-1.469.865 0 1.449.644 1.449 1.47 0 .785-.584 1.449-1.449 1.449Zm-2.094 7.609 1.087.644 9.28-10.346-1.087-.624-9.28 10.326Zm8.555 2.314c1.872 0 3.281-1.449 3.281-3.22 0-1.792-1.409-3.22-3.281-3.22-1.892 0-3.301 1.428-3.301 3.22 0 1.771 1.409 3.22 3.301 3.22Zm-.02-1.77c-.846 0-1.429-.645-1.429-1.45 0-.825.583-1.47 1.429-1.47.865 0 1.449.645 1.449 1.47 0 .785-.584 1.45-1.449 1.45Z" fill="#00834E"/><path d="M24.132 78.262c2.617 0 4.912-1.37 6.08-3.442l-1.631-.926c-.805 1.53-2.517 2.536-4.449 2.536-3.301 0-5.515-2.395-5.515-5.475 0-3.1 2.214-5.495 5.515-5.495 1.932 0 3.643 1.006 4.449 2.556l1.63-.946c-1.188-2.073-3.482-3.422-6.079-3.422-4.308 0-7.367 3.24-7.367 7.307 0 4.046 3.06 7.307 7.367 7.307ZM41.202 78h1.993L37.94 63.91h-2.114L30.574 78h1.992l1.148-3.16h6.34L41.203 78Zm-6.844-4.912 2.516-6.944 2.536 6.944h-5.052Zm24.046-9.178H48.238v1.771h4.147V78h1.852V65.681h4.167V63.91Zm7.925 4.026v1.73c-.805-1.227-2.093-1.992-3.804-1.992-2.798 0-5.093 2.315-5.093 5.294 0 2.979 2.295 5.294 5.093 5.294 1.71 0 2.999-.765 3.804-1.993V78h1.751V67.936H66.33Zm-3.583 8.635c-2.013 0-3.563-1.55-3.563-3.603s1.55-3.603 3.563-3.603c2.033 0 3.583 1.55 3.583 3.603s-1.55 3.603-3.583 3.603ZM79.218 78l-3.845-5.193 3.623-4.871h-2.053l-2.596 3.502-2.597-3.502h-2.073l3.643 4.89L69.455 78h2.053l2.839-3.804L77.165 78h2.053Z" fill="#656B7D"/><path d="M16.701 23H31.3a.416.416 0 0 0 .396-.546C30.834 19.834 27.674 18 24 18c-3.674 0-6.834 1.833-7.695 4.454A.417.417 0 0 0 16.7 23Z" fill="#A60"/><path d="M33.375 38a.625.625 0 0 0 0-1.25h-.403a.418.418 0 0 1-.358-.203l-.756-1.261a.416.416 0 0 0-.358-.203h-15a.416.416 0 0 0-.358.203l-.756 1.261a.418.418 0 0 1-.358.203h-.403a.625.625 0 1 0 0 1.25h18.75Z" fill="#EDBA6F"/><path d="M18.583 28h-1.666a.417.417 0 0 0-.417.417v5.416c0 .23.186.417.417.417h1.666c.23 0 .417-.187.417-.417v-5.416a.417.417 0 0 0-.417-.417ZM22.75 28h-1.667a.417.417 0 0 0-.416.417v5.416c0 .23.186.417.416.417h1.667c.23 0 .417-.187.417-.417v-5.416A.417.417 0 0 0 22.75 28ZM26.917 28H25.25a.417.417 0 0 0-.417.417v5.416c0 .23.187.417.417.417h1.667c.23 0 .416-.187.416-.417v-5.416a.417.417 0 0 0-.416-.417ZM31.083 28h-1.666a.417.417 0 0 0-.417.417v5.416c0 .23.186.417.417.417h1.666c.23 0 .417-.187.417-.417v-5.416a.417.417 0 0 0-.417-.417Z" fill="#A60"/><path d="M15.593 26.597a.833.833 0 0 0 .79.57h15.233a.833.833 0 0 0 .791-.57l.555-1.667a.832.832 0 0 0-.79-1.097H15.827a.834.834 0 0 0-.79 1.097l.556 1.667Z" fill="#EDBA6F"/><rect y="118" width="200" height="102" rx="1.463" fill="#fff"/><path d="M53.97 135.8h-7.15V154h7.15c5.018 0 8.71-4.03 8.71-9.1 0-5.096-3.692-9.1-8.71-9.1Zm0 15.34h-4.16v-12.48h4.16c3.458 0 5.824 2.626 5.824 6.24 0 3.588-2.366 6.24-5.824 6.24Zm12.333-12.09c.988 0 1.794-.832 1.794-1.794 0-.988-.806-1.794-1.794-1.794s-1.794.806-1.794 1.794c0 .962.806 1.794 1.794 1.794ZM64.899 154h2.808v-13h-2.808v13Zm8.19-9.412c0-.936.883-1.378 1.897-1.378 1.066 0 1.976.468 2.444 1.482l2.366-1.326c-.91-1.716-2.678-2.704-4.81-2.704-2.652 0-4.758 1.534-4.758 3.978 0 4.654 6.994 3.354 6.994 5.668 0 1.04-.962 1.456-2.21 1.456-1.43 0-2.47-.702-2.886-1.872l-2.418 1.404c.832 1.872 2.704 3.042 5.304 3.042 2.808 0 5.07-1.404 5.07-4.004 0-4.81-6.994-3.38-6.994-5.746Zm14.942 9.75c2.548 0 4.758-1.326 5.85-3.38l-2.418-1.378c-.624 1.196-1.898 2.002-3.458 2.002-2.288 0-4.03-1.742-4.03-4.082s1.742-4.082 4.03-4.082c1.56 0 2.834.78 3.406 2.002l2.418-1.404c-1.04-2.028-3.25-3.354-5.798-3.354-3.926 0-6.864 2.964-6.864 6.838 0 3.848 2.938 6.838 6.864 6.838Zm13.488 0c3.822 0 6.864-2.99 6.864-6.838 0-3.874-3.042-6.838-6.864-6.838-3.796 0-6.864 2.964-6.864 6.838 0 3.848 3.068 6.838 6.864 6.838Zm0-2.73c-2.288 0-4.056-1.742-4.056-4.108 0-2.366 1.768-4.108 4.056-4.108 2.288 0 4.056 1.742 4.056 4.108 0 2.366-1.768 4.108-4.056 4.108ZM119.359 141v6.968c0 2.652-1.456 3.744-3.302 3.744-1.768 0-2.912-1.04-2.912-3.016V141h-2.808v7.982c0 3.38 2.08 5.356 4.992 5.356 1.768 0 3.172-.65 4.03-2.002V154h2.808v-13h-2.808Zm12.605-.338c-1.768 0-3.172.65-4.03 2.002V141h-2.808v13h2.808v-6.968c0-2.652 1.456-3.744 3.302-3.744 1.768 0 2.912 1.04 2.912 3.016V154h2.808v-7.982c0-3.38-2.08-5.356-4.992-5.356Zm14.944 3.042V141h-3.224v-3.64l-2.808.832V141h-2.392v2.704h2.392v6.24c0 3.38 1.716 4.576 6.032 4.056v-2.522c-2.132.104-3.224.13-3.224-1.534v-6.24h3.224Z" fill="#35373D"/><path d="M139.624 198h9.279v-2.234h-5.837l3.18-3.181c1.349-1.368 2.396-2.838 2.396-4.589 0-2.798-2.194-4.348-4.509-4.348-1.872 0-3.643.926-4.549 2.858l1.952 1.148c.544-1.128 1.45-1.752 2.617-1.752 1.208 0 2.174.765 2.174 2.174 0 1.067-.785 2.094-1.792 3.1l-4.911 5.012V198Zm15.923.262c3.542 0 5.535-2.959 5.535-7.307 0-4.348-1.993-7.307-5.535-7.307-3.543 0-5.536 2.959-5.536 7.307 0 4.348 1.993 7.307 5.536 7.307Zm0-2.255c-2.074 0-3.221-1.811-3.221-5.052 0-3.241 1.147-5.053 3.221-5.053 2.093 0 3.22 1.812 3.22 5.053 0 3.241-1.127 5.052-3.22 5.052Zm10.001-5.918c1.892 0 3.281-1.449 3.281-3.22 0-1.812-1.409-3.221-3.281-3.221-1.892 0-3.301 1.429-3.301 3.221 0 1.771 1.409 3.22 3.301 3.22Zm-.02-1.771c-.846 0-1.429-.644-1.429-1.449 0-.826.583-1.47 1.429-1.47.865 0 1.449.644 1.449 1.47 0 .785-.584 1.449-1.449 1.449Zm-2.094 7.609 1.087.644 9.28-10.346-1.087-.624-9.28 10.326Zm8.555 2.315c1.872 0 3.281-1.45 3.281-3.221 0-1.792-1.409-3.221-3.281-3.221-1.892 0-3.301 1.429-3.301 3.221 0 1.771 1.409 3.221 3.301 3.221Zm-.02-1.772c-.845 0-1.429-.644-1.429-1.449 0-.825.584-1.47 1.429-1.47.866 0 1.449.645 1.449 1.47 0 .785-.583 1.449-1.449 1.449Z" fill="#00834E"/><path d="M25.561 190.693a3.504 3.504 0 0 0 1.53-2.939c0-2.174-1.751-3.844-3.945-3.844H17.51V198h6.079c2.274 0 4.086-1.731 4.086-3.986 0-1.529-.846-2.717-2.114-3.321Zm-2.415-5.032c1.167 0 2.093.966 2.093 2.154 0 1.207-.926 2.154-2.093 2.154h-3.764v-4.308h3.764Zm.443 10.588h-4.207v-4.57h4.207c1.248 0 2.234 1.007 2.234 2.275 0 1.288-.986 2.295-2.234 2.295ZM29.46 198h1.751v-14.694h-1.751V198Zm12.505-10.065v1.732c-.806-1.228-2.094-1.993-3.805-1.993-2.798 0-5.092 2.315-5.092 5.294 0 2.979 2.294 5.294 5.092 5.294 1.711 0 3-.765 3.805-1.993V198h1.75v-10.065h-1.75Zm-3.583 8.636c-2.013 0-3.563-1.55-3.563-3.603s1.55-3.603 3.563-3.603c2.033 0 3.583 1.55 3.583 3.603s-1.55 3.603-3.583 3.603Zm12.466 1.691c1.973 0 3.684-1.047 4.529-2.617l-1.49-.866c-.563 1.047-1.67 1.752-3.04 1.752-2.012 0-3.542-1.55-3.542-3.563 0-2.033 1.53-3.583 3.543-3.583 1.349 0 2.476.704 2.979 1.771l1.47-.845c-.766-1.59-2.456-2.637-4.45-2.637-3.039 0-5.293 2.315-5.293 5.294 0 2.979 2.254 5.294 5.294 5.294Zm14.52-.262-4.971-5.193 4.81-4.872h-2.254l-4.347 4.449v-8.474h-1.752V198h1.752v-4.771L63.196 198h2.174Zm14.452-12.319v-1.771h-8.112V198h1.872v-5.978h5.978v-1.772h-5.978v-4.569h6.24Zm3.585 3.945v-1.691h-1.751V198h1.751v-5.334c0-2.375 1.63-3.14 3.14-3.08v-1.832c-1.268 0-2.496.463-3.14 1.872Zm5.488-3.522c.644 0 1.167-.524 1.167-1.168 0-.644-.523-1.187-1.167-1.187a1.19 1.19 0 0 0-1.188 1.187c0 .644.524 1.168 1.188 1.168ZM88.008 198h1.751v-10.065h-1.75V198Zm12.505-14.09v5.757c-.805-1.228-2.094-1.993-3.805-1.993-2.797 0-5.092 2.315-5.092 5.294 0 2.979 2.294 5.294 5.093 5.294 1.71 0 2.999-.765 3.804-1.993V198h1.751v-14.09h-1.751Zm-3.583 12.661c-2.013 0-3.563-1.55-3.563-3.603s1.55-3.603 3.563-3.603c2.033 0 3.583 1.55 3.583 3.603s-1.55 3.603-3.583 3.603Zm16.069-8.636v1.732c-.805-1.228-2.093-1.993-3.804-1.993-2.798 0-5.093 2.315-5.093 5.294 0 2.979 2.295 5.294 5.093 5.294 1.711 0 2.999-.765 3.804-1.993V198h1.751v-10.065h-1.751Zm-3.583 8.636c-2.013 0-3.563-1.55-3.563-3.603s1.55-3.603 3.563-3.603c2.033 0 3.583 1.55 3.583 3.603s-1.55 3.603-3.583 3.603Zm14.761-8.636-2.899 7.891-3.421-7.891h-1.872l4.388 10.025-.182.382c-.523 1.329-1.368 2.154-2.717 2.053v1.631c2.053.141 3.623-1.148 4.469-3.402l4.106-10.689h-1.872Z" fill="#656B7D"/><path d="M34 145a3.63 3.63 0 0 0-1.893-3.217.207.207 0 0 1-.1-.24 3.683 3.683 0 0 0-2.615-4.574 3.68 3.68 0 0 0-1.934.023.205.205 0 0 1-.241-.1A3.686 3.686 0 0 0 24 135a3.678 3.678 0 0 0-3.217 1.892.206.206 0 0 1-.24.1 3.68 3.68 0 0 0-4.55 4.551.208.208 0 0 1-.1.24 3.68 3.68 0 0 0 0 6.434.209.209 0 0 1 .1.241 3.68 3.68 0 0 0 4.55 4.55.21.21 0 0 1 .137.007c.044.019.08.051.103.093A3.686 3.686 0 0 0 24 155a3.677 3.677 0 0 0 3.217-1.892.206.206 0 0 1 .24-.1 3.68 3.68 0 0 0 4.55-4.55.208.208 0 0 1 .1-.241A3.637 3.637 0 0 0 34 145Zm-6.952 4.572a1.521 1.521 0 0 1-1.408-.941 1.521 1.521 0 0 1 1.11-2.078 1.525 1.525 0 1 1 .298 3.019Zm-6.524.083a.834.834 0 0 1-1.176-1.176l8.128-8.127a.834.834 0 1 1 1.176 1.176l-8.128 8.127Zm.428-9.227a1.529 1.529 0 0 1 1.409.941 1.527 1.527 0 0 1-1.112 2.079 1.526 1.526 0 0 1-1.374-2.574 1.527 1.527 0 0 1 1.077-.446Z" fill="#127F83"/></svg>