<svg fill="none" xmlns="http://www.w3.org/2000/svg" viewBox="0 0 300 283"><rect x="49.264" y="23" width="159.393" height="168.902" rx="1.358" fill="#fff"/><rect x="98.622" y=".812" width="60.678" height="60.678" rx="30.339" fill="#3834FF"/><g clip-path="url(#a)"><path fill-rule="evenodd" clip-rule="evenodd" d="m114.248 36.034 14.824 12.777 14.824-12.777a12.905 12.905 0 0 0-3.087-5.211 12.844 12.844 0 0 0 2.922-5.108l-14.943-12.677-14.703 12.877a12.917 12.917 0 0 0 3.06 5.108 12.882 12.882 0 0 0-2.897 5.01Zm26.561-5.211c-5.887 6.313-17.635 6.4-23.664.2 5.897-6.328 17.643-6.395 23.664-.2Z" fill="#fff"/></g><path d="M85.432 81.61v-6.947h-1.354v8.241h4.71V81.61h-3.356Zm4.766-5.475a.822.822 0 0 0 .813-.813.814.814 0 0 0-.813-.812.814.814 0 0 0-.812.812c0 .436.365.813.812.813Zm-.636 6.77h1.272v-5.887h-1.272v5.886Zm7.287-5.887v.87c-.448-.635-1.142-1.023-2.049-1.023-1.66 0-2.967 1.354-2.967 3.037 0 1.684 1.307 3.038 2.967 3.038.907 0 1.601-.389 2.049-1.025v.718c0 1.025-.66 1.625-1.754 1.625-1.025 0-1.46-.4-1.72-.906l-1.094.635c.494.942 1.495 1.425 2.79 1.425 1.542 0 3.026-.883 3.026-2.779v-5.615h-1.248Zm-1.872 4.733c-1.072 0-1.872-.79-1.872-1.849 0-1.06.8-1.848 1.872-1.848 1.071 0 1.872.788 1.872 1.848s-.8 1.849-1.872 1.849Zm7.551-4.886c-.801 0-1.436.294-1.825.906v-3.108h-1.271v8.241h1.271V79.75c0-1.2.66-1.695 1.495-1.695.801 0 1.319.47 1.319 1.365v3.485h1.272V79.29c0-1.53-.942-2.425-2.261-2.425Zm6.767 1.377v-1.224h-1.46v-1.649l-1.271.377v1.272h-1.083v1.224h1.083v2.826c0 1.53.777 2.072 2.731 1.836v-1.142c-.965.047-1.46.06-1.46-.694v-2.826h1.46Zm10.276-3.579h-1.542l-2.001 3.65-2.014-3.65h-1.542l2.873 4.968v3.273h1.354v-3.273l2.872-4.968Zm.485 5.84h4.686a3.94 3.94 0 0 0 .047-.53c0-1.696-1.201-3.108-2.955-3.108-1.848 0-3.108 1.354-3.108 3.096 0 1.766 1.26 3.096 3.202 3.096 1.154 0 2.037-.482 2.578-1.283l-1.047-.612c-.283.412-.813.73-1.519.73-.942 0-1.684-.471-1.884-1.39Zm-.012-1.037c.177-.882.825-1.448 1.778-1.448.765 0 1.507.436 1.684 1.448h-3.462Zm10.344-2.448v.835c-.447-.612-1.142-.988-2.06-.988-1.601 0-2.931 1.342-2.931 3.096 0 1.742 1.33 3.096 2.931 3.096.918 0 1.613-.376 2.06-1v.847h1.272v-5.886h-1.272Zm-1.86 4.827c-1.059 0-1.86-.79-1.86-1.884 0-1.095.801-1.884 1.86-1.884 1.06 0 1.86.789 1.86 1.884 0 1.095-.8 1.884-1.86 1.884Zm5.738-3.838v-.99h-1.271v5.887h1.271v-2.967c0-1.318.978-1.707 1.813-1.648v-1.377c-.741 0-1.459.294-1.813 1.095Zm6.838 3.602v-2.225h3.297v-1.283h-3.297v-2.143h3.591v-1.295h-4.945v8.241h5.004V81.61h-3.65Zm7.756-4.744c-.8 0-1.436.294-1.825.906v-.753h-1.271v5.886h1.271V79.75c0-1.2.66-1.695 1.496-1.695.8 0 1.318.47 1.318 1.365v3.485h1.272V79.29c0-1.53-.942-2.425-2.261-2.425Zm4.483 3.638h4.686c.024-.165.047-.354.047-.53 0-1.696-1.201-3.108-2.955-3.108-1.848 0-3.108 1.354-3.108 3.096 0 1.766 1.26 3.096 3.202 3.096 1.154 0 2.037-.482 2.579-1.283l-1.048-.612c-.283.412-.812.73-1.519.73-.942 0-1.683-.471-1.884-1.39Zm-.011-1.037c.176-.882.824-1.448 1.777-1.448.766 0 1.507.436 1.684 1.448h-3.461Zm6.987-1.46v-.988h-1.271v5.886h1.271v-2.967c0-1.318.978-1.707 1.814-1.648v-1.377c-.742 0-1.46.294-1.814 1.095Zm7.016-.988v.87c-.448-.635-1.142-1.023-2.049-1.023-1.66 0-2.967 1.354-2.967 3.037 0 1.684 1.307 3.038 2.967 3.038.907 0 1.601-.389 2.049-1.025v.718c0 1.025-.66 1.625-1.755 1.625-1.024 0-1.459-.4-1.718-.906l-1.095.635c.494.942 1.495 1.425 2.79 1.425 1.542 0 3.026-.883 3.026-2.779v-5.615h-1.248Zm-1.872 4.733c-1.072 0-1.872-.79-1.872-1.849 0-1.06.8-1.848 1.872-1.848 1.071 0 1.872.788 1.872 1.848s-.801 1.849-1.872 1.849Zm8.422-4.733-1.507 4.273-1.754-4.273h-1.389l2.496 5.78-.059.118c-.295.777-.742 1.2-1.566 1.154v1.189c1.354.082 2.319-.671 2.873-2.166l2.26-6.075h-1.354Z" fill="#35373D"/><path d="M98.427 95.303c1.092 0 1.855-.583 1.855-1.54 0-1.04-.876-1.31-1.743-1.587-.763-.24-1.055-.411-1.055-.815 0-.397.322-.651.823-.651.583 0 .912.314 1.1.733l.725-.419c-.329-.695-.965-1.152-1.825-1.152-.883 0-1.683.546-1.683 1.511 0 .988.793 1.287 1.608 1.534.778.24 1.19.396 1.19.86 0 .382-.292.688-.973.688-.71 0-1.115-.351-1.302-.882l-.74.434c.276.778.987 1.286 2.02 1.286Zm5.515-3.837v.53c-.284-.388-.726-.628-1.309-.628-1.018 0-1.863.853-1.863 1.968 0 1.107.845 1.967 1.863 1.967.583 0 1.025-.24 1.309-.636v.54h.808v-3.741h-.808Zm-1.182 3.067c-.673 0-1.182-.502-1.182-1.197 0-.696.509-1.197 1.182-1.197.673 0 1.182.501 1.182 1.197 0 .695-.509 1.197-1.182 1.197Zm6.923-3.165c-.502 0-.898.202-1.145.591-.217-.374-.576-.59-1.062-.59-.464 0-.831.179-1.07.545v-.448h-.808v3.74h.808v-2.095c0-.68.374-.987.83-.987.442 0 .704.292.704.815v2.267h.808v-2.095c0-.68.336-.987.815-.987.441 0 .726.292.726.815v2.267h.808v-2.319c0-.935-.569-1.519-1.414-1.519Zm4.698-.74a2.683 2.683 0 0 0-2.723 2.708c0 1.57 1.227 2.708 2.858 2.708a3.94 3.94 0 0 0 1.249-.18v-.254c-.351.127-.755.195-1.249.195-1.496 0-2.596-1.048-2.596-2.47 0-1.406 1.1-2.468 2.461-2.468 1.332 0 2.357 1.002 2.357 2.32 0 .92-.337 1.3-.733 1.3-.344 0-.457-.276-.457-.605v-1.69h-.688v.224a.973.973 0 0 0-.718-.3c-.658 0-1.137.524-1.137 1.22 0 .688.479 1.212 1.137 1.212a.945.945 0 0 0 .77-.367c.128.397.464.614.936.614.613 0 1.152-.502 1.152-1.609 0-1.234-.95-2.558-2.619-2.558Zm-.097 3.291a.561.561 0 0 1-.583-.583c0-.36.254-.591.583-.591.322 0 .576.232.576.59a.56.56 0 0 1-.576.584Zm3.357 1.287h.808v-5.461h-.808v5.461Zm2.056-4.302c.284 0 .516-.239.516-.516a.517.517 0 0 0-1.032 0c0 .277.232.516.516.516Zm-.404 4.302h.808v-3.74h-.808v3.74Zm4.63-3.74v.553c-.284-.404-.726-.65-1.302-.65-1.054 0-1.885.86-1.885 1.93 0 1.07.831 1.93 1.885 1.93.576 0 1.018-.247 1.302-.651v.456c0 .65-.419 1.032-1.115 1.032-.65 0-.927-.254-1.092-.576l-.696.404c.315.599.951.905 1.773.905.98 0 1.923-.56 1.923-1.765v-3.568h-.793Zm-1.189 3.007c-.681 0-1.19-.501-1.19-1.175 0-.673.509-1.174 1.19-1.174.68 0 1.189.501 1.189 1.174 0 .674-.509 1.175-1.189 1.175Zm4.798-3.105c-.509 0-.913.187-1.16.576V89.97h-.808v5.237h.808v-2.005c0-.763.419-1.077.95-1.077.509 0 .838.3.838.868v2.214h.808V92.91c0-.972-.598-1.54-1.436-1.54Zm4.3.876v-.778h-.928v-1.048l-.808.24v.808h-.688v.778h.688v1.795c0 .972.494 1.317 1.736 1.167v-.726c-.614.03-.928.038-.928-.441v-1.795h.928Zm3.233-.778-.957 2.715-1.115-2.715h-.883l1.586 3.673-.037.075c-.187.493-.472.763-.995.733v.755c.86.053 1.474-.426 1.825-1.376l1.436-3.86h-.86Zm1.762 2.214h2.977c.015-.105.03-.225.03-.337 0-1.077-.763-1.975-1.877-1.975-1.175 0-1.975.86-1.975 1.968 0 1.122.8 1.967 2.034 1.967.734 0 1.295-.306 1.639-.815l-.666-.39c-.18.263-.516.465-.965.465-.599 0-1.07-.3-1.197-.883Zm-.008-.658c.113-.562.524-.92 1.13-.92.486 0 .958.276 1.07.92h-2.2Zm6.573-1.556v.53c-.284-.388-.725-.628-1.309-.628-1.017 0-1.863.853-1.863 1.968 0 1.107.846 1.967 1.863 1.967.584 0 1.025-.24 1.309-.636v.54h.808v-3.741h-.808Zm-1.182 3.067c-.673 0-1.182-.502-1.182-1.197 0-.696.509-1.197 1.182-1.197.674 0 1.182.501 1.182 1.197 0 .695-.508 1.197-1.182 1.197Zm3.646-2.439v-.628h-.808v3.74h.808v-1.885c0-.838.621-1.085 1.152-1.047v-.876c-.471 0-.927.187-1.152.696Zm1.616 3.202a.56.56 0 1 0 0-1.122.556.556 0 0 0-.561.56.56.56 0 0 0 .561.562Zm2.793.007c.733 0 1.369-.381 1.683-.972l-.695-.397c-.18.344-.547.576-.995.576-.659 0-1.16-.5-1.16-1.174 0-.674.501-1.175 1.16-1.175.448 0 .815.225.98.576l.695-.404c-.299-.583-.935-.965-1.668-.965-1.13 0-1.975.853-1.975 1.968 0 1.107.845 1.967 1.975 1.967Zm3.881 0c1.1 0 1.975-.86 1.975-1.967a1.948 1.948 0 0 0-1.975-1.968 1.953 1.953 0 0 0-1.975 1.968c0 1.107.883 1.967 1.975 1.967Zm0-.785c-.658 0-1.167-.501-1.167-1.182 0-.681.509-1.182 1.167-1.182s1.167.501 1.167 1.182c0 .68-.509 1.182-1.167 1.182Zm6.696-3.15c-.501 0-.897.202-1.144.591-.217-.374-.576-.59-1.062-.59-.464 0-.831.179-1.07.545v-.448h-.808v3.74h.808v-2.095c0-.68.374-.987.83-.987.442 0 .703.292.703.815v2.267h.808v-2.095c0-.68.337-.987.816-.987.441 0 .725.292.725.815v2.267h.808v-2.319c0-.935-.568-1.519-1.414-1.519Z" fill="#656B7D"/><path d="M61.032 131.424c.36-.232.599-.606.599-1.107 0-1.01-.793-1.503-1.66-1.503-.876 0-1.662.493-1.662 1.503 0 .501.24.875.591 1.107-.478.27-.77.726-.77 1.272 0 .973.748 1.549 1.84 1.549s1.833-.576 1.833-1.549c0-.553-.284-1.002-.77-1.272Zm-1.062-1.795c.434 0 .8.239.8.726 0 .463-.366.725-.8.725-.441 0-.8-.262-.8-.725 0-.487.359-.726.8-.726Zm0 3.8c-.568 0-.98-.284-.98-.815 0-.539.412-.816.98-.816.561 0 .973.277.973.816 0 .531-.412.815-.973.815Zm3.325-4.518-1.376.486.21.733 1.054-.299v4.316h.86v-5.236h-.748Zm4.381 2.513a1.27 1.27 0 0 0 .599-1.107c0-1.01-.793-1.503-1.661-1.503-.875 0-1.66.493-1.66 1.503 0 .501.239.875.59 1.107-.479.27-.77.726-.77 1.272 0 .973.748 1.549 1.84 1.549s1.833-.576 1.833-1.549c0-.553-.285-1.002-.77-1.272Zm-1.062-1.795c.434 0 .8.239.8.726 0 .463-.366.725-.8.725-.442 0-.8-.262-.8-.725 0-.487.359-.726.8-.726Zm0 3.8c-.569 0-.98-.284-.98-.815 0-.539.411-.816.98-.816.56 0 .972.277.972.816 0 .531-.411.815-.972.815Zm2.521-1.167h2.768v-.778h-2.768v.778Zm2.783-3.351v.823h2.394l-1.81 4.413h.905l1.84-4.488v-.748h-3.33Zm7.228 3.493h-.599v-1.361h-.868v1.361h-1.638l1.803-3.493h-.935l-1.803 3.493v.801h2.573v.942h.868v-.942h.599v-.801Zm3.235-.98c.359-.232.598-.606.598-1.107 0-1.01-.793-1.503-1.66-1.503-.876 0-1.661.493-1.661 1.503 0 .501.24.875.59 1.107-.478.27-.77.726-.77 1.272 0 .973.748 1.549 1.84 1.549 1.093 0 1.834-.576 1.834-1.549 0-.553-.285-1.002-.771-1.272Zm-1.062-1.795c.433 0 .8.239.8.726 0 .463-.367.725-.8.725-.442 0-.8-.262-.8-.725 0-.487.358-.726.8-.726Zm0 3.8c-.569 0-.98-.284-.98-.815 0-.539.411-.816.98-.816.56 0 .972.277.972.816 0 .531-.411.815-.972.815Zm2.521-1.167h2.768v-.778H83.84v.778Zm5.239-1.593h-.097l1.196-1.758h-.98l-1.66 2.491a1.831 1.831 0 0 0-.314 1.055c0 1.055.763 1.788 1.855 1.788 1.085 0 1.848-.733 1.848-1.788 0-1.055-.764-1.788-1.848-1.788Zm0 2.76c-.576 0-.995-.374-.995-.972 0-.599.419-.973.995-.973.568 0 .987.374.987.973 0 .591-.419.972-.987.972Zm6.225-1.025h-.598v-1.361h-.868v1.361H92.2l1.803-3.493h-.936l-1.802 3.493v.801h2.573v.942h.868v-.942h.598v-.801Zm3.236-.98c.359-.232.598-.606.598-1.107 0-1.01-.793-1.503-1.66-1.503-.876 0-1.662.493-1.662 1.503 0 .501.24.875.591 1.107-.478.27-.77.726-.77 1.272 0 .973.748 1.549 1.84 1.549s1.833-.576 1.833-1.549c0-.553-.284-1.002-.77-1.272Zm-1.063-1.795c.434 0 .8.239.8.726 0 .463-.366.725-.8.725-.441 0-.8-.262-.8-.725 0-.487.359-.726.8-.726Zm0 3.8c-.568 0-.98-.284-.98-.815 0-.539.412-.816.98-.816.561 0 .973.277.973.816 0 .531-.412.815-.973.815Zm4.019-2.543h-.659l.09-1.167h2.125v-.808h-2.918l-.202 2.813h1.526c.569 0 .958.314.958.837 0 .524-.389.846-.973.846-.546 0-.905-.247-1.039-.711l-.741.427c.277.755.987 1.122 1.78 1.122.965 0 1.833-.584 1.833-1.684 0-1.092-.83-1.675-1.78-1.675Z" fill="#35373D"/><path d="M60.322 117.59h-1.93v5.237h.86v-1.795h1.07c.987 0 1.735-.756 1.735-1.721 0-.972-.748-1.721-1.735-1.721Zm0 2.634h-1.07v-1.826h1.07c.508 0 .875.382.875.913 0 .524-.367.913-.875.913Zm5.493-2.634v2.148h-2.244v-2.148h-.86v5.237h.86v-2.267h2.244v2.267h.86v-5.237h-.86Zm4.268 5.334a2.692 2.692 0 0 0 2.715-2.715 2.692 2.692 0 0 0-2.715-2.716 2.697 2.697 0 0 0-2.716 2.716 2.696 2.696 0 0 0 2.716 2.715Zm0-.837c-1.048 0-1.856-.801-1.856-1.878s.808-1.878 1.856-1.878c1.047 0 1.855.801 1.855 1.878s-.808 1.878-1.855 1.878Zm6.549-4.497v3.554l-2.47-3.554h-.672v5.237h.86v-3.553l2.469 3.553h.673v-5.237h-.86Zm2.672 4.414v-1.414H81.4v-.815h-2.095v-1.362h2.282v-.823h-3.142v5.237h3.18v-.823h-2.32Z" fill="#8C92A4"/><path d="M169.1 132.711c0-.995-.763-1.279-1.474-1.548v-1.482c.307.068.532.255.666.591l.726-.419c-.269-.613-.786-.942-1.392-1.025v-.665h-.486v.658c-.778.075-1.459.584-1.459 1.466 0 .958.733 1.28 1.459 1.549v1.556c-.486-.052-.793-.314-.957-.733l-.741.426c.262.681.868 1.1 1.698 1.152v.659h.486v-.666c.853-.105 1.474-.651 1.474-1.519Zm-2.558-2.424c0-.336.232-.561.598-.621v1.302c-.419-.194-.598-.367-.598-.681Zm1.084 3.097v-1.361c.382.172.614.344.614.696 0 .321-.202.583-.614.665Zm3.661-2.498h-.658l.089-1.167h2.125v-.808h-2.918l-.201 2.813h1.526c.568 0 .957.314.957.837 0 .524-.389.846-.972.846-.546 0-.906-.247-1.04-.711l-.741.427c.277.755.988 1.122 1.781 1.122.965 0 1.832-.584 1.832-1.684 0-1.092-.83-1.675-1.78-1.675Zm1.965-1.975v.823h2.394l-1.811 4.413h.906l1.84-4.488v-.748h-3.329Zm3.93 4.339h-.898l-.299 1.945h.673l.524-1.945Zm3.657-2.649c0-1.054-.763-1.787-1.848-1.787s-1.855.733-1.855 1.787c0 1.055.77 1.788 1.855 1.788h.09l-1.197 1.758h.987l1.654-2.491c.202-.291.314-.651.314-1.055Zm-2.843 0c0-.598.427-.972.995-.972.569 0 .988.374.988.972 0 .599-.419.973-.988.973-.568 0-.995-.382-.995-.973Zm2.975-1.69v.823h2.394l-1.81 4.413h.905l1.84-4.488v-.748h-3.329Zm6.48 2.513c.359-.232.599-.606.599-1.107 0-1.01-.793-1.503-1.661-1.503-.875 0-1.661.493-1.661 1.503 0 .501.239.875.591 1.107-.479.27-.771.726-.771 1.272 0 .973.749 1.549 1.841 1.549s1.833-.576 1.833-1.549c0-.553-.285-1.002-.771-1.272Zm-1.062-1.795c.434 0 .8.239.8.726 0 .463-.366.725-.8.725-.442 0-.801-.262-.801-.725 0-.487.359-.726.801-.726Zm0 3.8c-.569 0-.98-.284-.98-.815 0-.539.411-.816.98-.816.561 0 .972.277.972.816 0 .531-.411.815-.972.815Zm2.955.808a.56.56 0 1 0 0-1.122.556.556 0 0 0-.561.561.56.56 0 0 0 .561.561Zm4.22-3.636c0-1.054-.763-1.787-1.848-1.787s-1.855.733-1.855 1.787c0 1.055.77 1.788 1.855 1.788h.09l-1.197 1.758h.987l1.654-2.491c.202-.291.314-.651.314-1.055Zm-2.843 0c0-.598.427-.972.995-.972.569 0 .988.374.988.972 0 .599-.419.973-.988.973-.568 0-.995-.382-.995-.973Zm6.826 0c0-1.054-.763-1.787-1.848-1.787s-1.855.733-1.855 1.787c0 1.055.77 1.788 1.855 1.788h.09l-1.197 1.758h.987l1.654-2.491c.202-.291.314-.651.314-1.055Zm-2.843 0c0-.598.427-.972.995-.972.569 0 .988.374.988.972 0 .599-.419.973-.988.973-.568 0-.995-.382-.995-.973Z" fill="#00834E"/><path d="M184.179 117.59h-1.93v5.237h.86v-1.795h1.07c.987 0 1.735-.756 1.735-1.721 0-.972-.748-1.721-1.735-1.721Zm0 2.634h-1.07v-1.826h1.07c.509 0 .875.382.875.913 0 .524-.366.913-.875.913Zm5.274 2.603h.928l-1.893-5.237h-1.032l-1.9 5.237h.935l.366-1.055h2.23l.366 1.055Zm-2.311-1.863.83-2.364.83 2.364h-1.66Zm3.708-3.374v5.237h.861v-5.237h-.861Zm3.871 0h-2.057v5.237h2.057c1.444 0 2.506-1.159 2.506-2.618 0-1.466-1.062-2.619-2.506-2.619Zm0 4.414h-1.197v-3.591h1.197c.995 0 1.676.756 1.676 1.796 0 1.032-.681 1.795-1.676 1.795Z" fill="#8C92A4"/><path d="M168.245 168.032c0-.995-.763-1.279-1.474-1.548v-1.481c.307.067.531.254.666.591l.726-.419c-.27-.614-.786-.943-1.392-1.025v-.666h-.486v.658c-.778.075-1.459.584-1.459 1.467 0 .957.733 1.279 1.459 1.548v1.556c-.486-.052-.793-.314-.958-.733l-.74.426c.261.681.867 1.1 1.698 1.153v.658h.486v-.666c.853-.105 1.474-.651 1.474-1.519Zm-2.559-2.423c0-.337.232-.561.599-.621v1.301c-.419-.194-.599-.366-.599-.68Zm1.085 3.097v-1.362c.382.172.614.344.614.696 0 .322-.202.583-.614.666Zm3.077-4.474-1.376.486.209.733 1.055-.299v4.317h.86v-5.237h-.748Zm1.448 5.237h3.449v-.831h-2.169l1.182-1.182c.501-.508.89-1.054.89-1.705 0-1.04-.816-1.616-1.676-1.616-.696 0-1.354.344-1.691 1.062l.726.427c.202-.419.539-.651.973-.651.448 0 .807.284.807.808 0 .396-.291.778-.665 1.152l-1.826 1.862v.674Zm5.228-.898h-.898l-.299 1.945H176l.524-1.945Zm.405-4.339v.823h2.394l-1.81 4.414h.905l1.84-4.489v-.748h-3.329Zm7.228 3.494h-.599v-1.362h-.867v1.362h-1.639l1.803-3.494h-.935l-1.803 3.494v.8h2.574v.943h.867v-.943h.599v-.8Zm2.091-1.519h-.658l.09-1.167h2.124v-.808h-2.917l-.202 2.813h1.526c.569 0 .958.314.958.838 0 .523-.389.845-.973.845-.546 0-.905-.247-1.04-.711l-.74.427c.276.755.987 1.122 1.78 1.122.965 0 1.833-.584 1.833-1.683 0-1.092-.831-1.676-1.781-1.676Zm2.738 3.352a.56.56 0 1 0 0-1.123.555.555 0 0 0-.561.561.56.56 0 0 0 .561.562Zm2.913-3.352h-.659l.09-1.167h2.125v-.808h-2.918l-.202 2.813h1.526c.569 0 .958.314.958.838 0 .523-.389.845-.973.845-.546 0-.905-.247-1.04-.711l-.74.427c.277.755.987 1.122 1.78 1.122.965 0 1.833-.584 1.833-1.683 0-1.092-.83-1.676-1.78-1.676Zm3.91 0h-.659l.09-1.167h2.125v-.808h-2.918l-.202 2.813h1.526c.569 0 .958.314.958.838 0 .523-.389.845-.973.845-.546 0-.905-.247-1.04-.711l-.74.427c.277.755.987 1.122 1.78 1.122.965 0 1.833-.584 1.833-1.683 0-1.092-.83-1.676-1.78-1.676Z" fill="#C20101"/><path d="M150.782 158.246a2.692 2.692 0 0 0 2.715-2.716 2.691 2.691 0 0 0-2.715-2.715 2.696 2.696 0 0 0-2.716 2.715 2.696 2.696 0 0 0 2.716 2.716Zm0-.838c-1.048 0-1.856-.801-1.856-1.878s.808-1.878 1.856-1.878c1.047 0 1.855.801 1.855 1.878s-.808 1.878-1.855 1.878Zm5.293.838c1.144 0 1.982-.704 1.982-1.833v-3.501h-.86v3.448c0 .614-.352 1.048-1.122 1.048-.771 0-1.122-.434-1.122-1.048v-3.448h-.861v3.501c0 1.129.831 1.833 1.983 1.833Zm6.282-5.334h-3.815v.823h1.481v4.413h.86v-4.413h1.474v-.823Zm2.14 5.334c1.092 0 1.855-.584 1.855-1.541 0-1.04-.875-1.31-1.743-1.586-.763-.24-1.055-.412-1.055-.816 0-.396.322-.651.823-.651.583 0 .913.315 1.1.734l.725-.419c-.329-.696-.965-1.152-1.825-1.152-.883 0-1.683.546-1.683 1.511 0 .987.793 1.286 1.608 1.533.778.24 1.19.397 1.19.861 0 .381-.292.688-.973.688-.711 0-1.115-.352-1.302-.883l-.74.434c.277.778.987 1.287 2.02 1.287Zm5.716-5.334h-3.815v.823h1.481v4.413h.861v-4.413h1.473v-.823Zm3.582 5.236h.928l-1.893-5.236h-1.033l-1.9 5.236h.935l.367-1.054h2.229l.367 1.054Zm-2.312-1.862.831-2.364.83 2.364h-1.661Zm6.851-3.374v3.553l-2.469-3.553h-.673v5.236h.86v-3.553l2.469 3.553h.673v-5.236h-.86Zm3.87 0h-2.057v5.236h2.057c1.444 0 2.506-1.159 2.506-2.618 0-1.466-1.062-2.618-2.506-2.618Zm0 4.414h-1.197v-3.591h1.197c.995 0 1.676.755 1.676 1.795 0 1.032-.681 1.796-1.676 1.796Zm3.197-4.414v5.236h.86v-5.236h-.86Zm4.955 0v3.553l-2.468-3.553h-.674v5.236h.861v-3.553l2.468 3.553h.674v-5.236h-.861Zm6.907 2.528h-2.618v.771h1.751c-.157.703-.741 1.197-1.691 1.197-1.175 0-1.938-.816-1.938-1.87 0-1.07.778-1.886 1.886-1.886.688 0 1.271.345 1.541.831l.74-.427c-.441-.74-1.286-1.241-2.281-1.241-1.571 0-2.746 1.211-2.746 2.715 0 1.504 1.16 2.716 2.791 2.716 1.533 0 2.565-1.018 2.565-2.447v-.359Z" fill="#8C92A4"/><path d="M61.032 165.839a1.27 1.27 0 0 0 .599-1.107c0-1.01-.793-1.503-1.66-1.503-.876 0-1.662.493-1.662 1.503 0 .501.24.876.591 1.107-.478.27-.77.726-.77 1.272 0 .973.748 1.549 1.84 1.549s1.833-.576 1.833-1.549c0-.553-.284-1.002-.77-1.272Zm-1.062-1.795c.434 0 .8.239.8.726 0 .463-.366.725-.8.725-.441 0-.8-.262-.8-.725 0-.487.359-.726.8-.726Zm0 3.8c-.568 0-.98-.284-.98-.815 0-.539.412-.816.98-.816.561 0 .973.277.973.816 0 .531-.412.815-.973.815Zm2.037-4.518v.823h2.394l-1.81 4.413h.905l1.84-4.488v-.748h-3.329Zm7.228 3.493h-.599v-1.361h-.867v1.361H66.13l1.803-3.493h-.935l-1.803 3.493v.801h2.574v.942h.867v-.942h.599v-.801Zm3.778-1.802c0-1.055-.763-1.788-1.848-1.788-1.084 0-1.855.733-1.855 1.788 0 1.054.77 1.787 1.855 1.787h.09l-1.197 1.758h.988l1.653-2.491c.202-.291.314-.651.314-1.054Zm-2.843 0c0-.599.427-.973.995-.973.569 0 .988.374.988.973 0 .598-.42.972-.988.972-.568 0-.995-.381-.995-.972Zm6.1.822a1.27 1.27 0 0 0 .599-1.107c0-1.01-.793-1.503-1.66-1.503-.876 0-1.662.493-1.662 1.503 0 .501.24.876.591 1.107-.478.27-.77.726-.77 1.272 0 .973.748 1.549 1.84 1.549s1.833-.576 1.833-1.549c0-.553-.284-1.002-.77-1.272Zm-1.062-1.795c.434 0 .8.239.8.726 0 .463-.366.725-.8.725-.441 0-.8-.262-.8-.725 0-.487.359-.726.8-.726Zm0 3.8c-.568 0-.98-.284-.98-.815 0-.539.412-.816.98-.816.561 0 .973.277.973.816 0 .531-.412.815-.973.815Zm7.38-1.997c.33-.239.532-.614.532-1.07 0-.838-.689-1.451-1.534-1.451h-2.08v5.236h2.245c.867 0 1.57-.628 1.57-1.496 0-.561-.291-.987-.733-1.219Zm-1.002-1.713a.67.67 0 0 1 .673.688.67.67 0 0 1-.673.688h-1.22v-1.376h1.22Zm.165 3.621h-1.384v-1.467h1.384c.404 0 .71.322.71.733 0 .412-.306.734-.71.734Zm2.848-.719h2.977c.015-.104.03-.224.03-.336 0-1.078-.763-1.975-1.877-1.975-1.175 0-1.975.86-1.975 1.967 0 1.122.8 1.968 2.034 1.968.734 0 1.295-.307 1.639-.816l-.666-.389c-.18.262-.516.464-.965.464-.599 0-1.07-.299-1.197-.883Zm-.008-.658c.113-.561.524-.92 1.13-.92.486 0 .958.277 1.07.92h-2.2Zm5.6-1.653c-.508 0-.913.187-1.16.576v-.479h-.807v3.74h.808v-2.004c0-.763.419-1.078.95-1.078.508 0 .838.3.838.868v2.214h.808v-2.296c0-.973-.599-1.541-1.437-1.541Zm2.686-.464a.522.522 0 0 0 .516-.516.517.517 0 0 0-1.032 0c0 .277.232.516.516.516Zm-.404 4.451c0 .524-.232.711-.726.666v.778c1.025.075 1.534-.412 1.534-1.444v-3.89h-.808v3.89Zm4.619-3.89v.531c-.284-.389-.726-.628-1.31-.628-1.017 0-1.862.853-1.862 1.967 0 1.107.845 1.968 1.863 1.968.583 0 1.025-.24 1.309-.636v.538h.808v-3.74h-.808Zm-1.182 3.067c-.673 0-1.182-.501-1.182-1.197 0-.695.509-1.197 1.182-1.197.673 0 1.182.502 1.182 1.197 0 .696-.509 1.197-1.182 1.197Zm6.923-3.164c-.501 0-.898.202-1.145.591-.217-.374-.576-.591-1.062-.591-.464 0-.83.179-1.07.546v-.449h-.808v3.74h.808v-2.094c0-.681.374-.988.83-.988.442 0 .704.292.704.816v2.266h.808v-2.094c0-.681.336-.988.815-.988.441 0 .726.292.726.816v2.266h.808v-2.319c0-.935-.569-1.518-1.414-1.518Zm2.589-.464a.522.522 0 0 0 .516-.516.517.517 0 0 0-1.032 0c0 .277.232.516.516.516Zm-.404 4.301h.808v-3.74h-.808v3.74Zm3.62-3.837c-.509 0-.913.187-1.16.576v-.479h-.808v3.74h.808v-2.004c0-.763.419-1.078.95-1.078.509 0 .838.3.838.868v2.214h.808v-2.296c0-.973-.598-1.541-1.436-1.541Zm4.902 3.015v-4.414h-.86v5.236h2.992v-.822h-2.132Zm4.592-3.015c-.508 0-.912.187-1.159.576v-.479h-.808v3.74h.808v-2.004c0-.763.419-1.078.95-1.078.509 0 .838.3.838.868v2.214h.808v-2.296c0-.973-.599-1.541-1.437-1.541Zm2.699 3.927a.56.56 0 1 0 0-1.122.556.556 0 0 0-.561.561.56.56 0 0 0 .561.561Zm-61.579 8.088v-4.414h-.86v5.236h2.992v-.822h-2.132Zm4.273.92c1.1 0 1.975-.861 1.975-1.968a1.948 1.948 0 0 0-1.975-1.967 1.953 1.953 0 0 0-1.975 1.967c0 1.107.883 1.968 1.975 1.968Zm0-.786c-.658 0-1.167-.501-1.167-1.182 0-.681.509-1.182 1.167-1.182.659 0 1.167.501 1.167 1.182 0 .681-.508 1.182-1.167 1.182Zm3.265-2.02c0-.269.254-.396.546-.396.307 0 .569.135.703.426l.681-.381c-.262-.494-.77-.778-1.384-.778-.763 0-1.369.441-1.369 1.144 0 1.339 2.012.965 2.012 1.631 0 .299-.276.419-.635.419-.412 0-.711-.202-.83-.538l-.697.403c.24.539.778.876 1.527.876.807 0 1.458-.404 1.458-1.152 0-1.384-2.012-.973-2.012-1.654Zm7.87 2.708h.927l-1.893-5.236h-1.032l-1.9 5.236h.935l.367-1.054h2.229l.366 1.054Zm-2.312-1.862.83-2.364.83 2.364h-1.66Zm5.624-1.975c-.509 0-.913.187-1.16.576v-.479h-.808v3.74h.808v-2.004c0-.763.42-1.078.95-1.078.509 0 .838.3.838.868v2.214h.808v-2.296c0-.973-.598-1.541-1.436-1.541Zm5.19.097v.554c-.284-.404-.726-.651-1.302-.651-1.055 0-1.885.86-1.885 1.93 0 1.07.83 1.93 1.885 1.93.576 0 1.018-.247 1.302-.651v.456c0 .651-.419 1.033-1.115 1.033-.65 0-.927-.255-1.092-.576l-.696.404c.315.598.95.905 1.773.905.98 0 1.923-.561 1.923-1.766v-3.568h-.793Zm-1.19 3.007c-.68 0-1.189-.501-1.189-1.174 0-.673.509-1.175 1.19-1.175.68 0 1.189.502 1.189 1.175s-.509 1.174-1.19 1.174Zm3.467-.793h2.978c.014-.104.03-.224.03-.336 0-1.078-.764-1.975-1.878-1.975-1.175 0-1.975.86-1.975 1.967 0 1.122.8 1.968 2.035 1.968.733 0 1.294-.307 1.638-.816l-.666-.389c-.18.262-.516.464-.965.464-.599 0-1.07-.299-1.197-.883Zm-.007-.658c.112-.561.523-.92 1.13-.92.486 0 .957.277 1.069.92h-2.2Zm3.632 2.184h.808v-5.461h-.808v5.461Zm2.288-1.526h2.978c.015-.104.03-.224.03-.336 0-1.078-.763-1.975-1.878-1.975-1.175 0-1.975.86-1.975 1.967 0 1.122.8 1.968 2.035 1.968.733 0 1.294-.307 1.638-.816l-.666-.389c-.18.262-.516.464-.965.464-.598 0-1.07-.299-1.197-.883Zm-.007-.658c.112-.561.523-.92 1.13-.92.486 0 .957.277 1.07.92h-2.2Zm4.212-.524c0-.269.254-.396.546-.396.306 0 .568.135.703.426l.68-.381c-.261-.494-.77-.778-1.383-.778-.763 0-1.37.441-1.37 1.144 0 1.339 2.013.965 2.013 1.631 0 .299-.277.419-.636.419-.411 0-.71-.202-.83-.538l-.696.403c.24.539.778.876 1.526.876.808 0 1.459-.404 1.459-1.152 0-1.384-2.013-.973-2.013-1.654Zm3.678 1.811h-.898l-.3 1.945h.674l.524-1.945Zm5.069.995c.965 0 1.818-.494 2.252-1.257l-.748-.426c-.269.516-.845.845-1.504.845-1.129 0-1.878-.801-1.878-1.878s.749-1.878 1.878-1.878c.659 0 1.227.33 1.504.846l.748-.434c-.441-.763-1.294-1.249-2.252-1.249-1.593 0-2.738 1.197-2.738 2.715 0 1.519 1.145 2.716 2.738 2.716Zm6.248-.098h.928l-1.893-5.236h-1.032l-1.901 5.236h.935l.367-1.054h2.229l.367 1.054Zm-2.312-1.862.831-2.364.83 2.364h-1.661Zm8.852-1.683c0-1.055-.763-1.788-1.847-1.788-1.085 0-1.856.733-1.856 1.788 0 1.054.771 1.787 1.856 1.787h.089l-1.197 1.758h.988l1.653-2.491c.202-.291.314-.651.314-1.054Zm-2.842 0c0-.599.426-.973.995-.973.568 0 .987.374.987.973 0 .598-.419.972-.987.972-.569 0-.995-.381-.995-.972Zm7.001 1.802h-.599v-1.361h-.867v1.361h-1.639l1.803-3.493h-.935l-1.803 3.493v.801h2.574v.942h.867v-.942h.599v-.801Zm2.091-1.518h-.658l.09-1.167h2.125v-.808h-2.918l-.202 2.813h1.526c.569 0 .958.314.958.838 0 .523-.389.845-.973.845-.546 0-.905-.247-1.04-.711l-.74.427c.276.755.987 1.122 1.78 1.122.965 0 1.833-.584 1.833-1.683 0-1.093-.83-1.676-1.781-1.676Zm3.969-.217h-.098l1.197-1.758h-.98l-1.661 2.491a1.83 1.83 0 0 0-.314 1.055c0 1.055.763 1.788 1.856 1.788 1.084 0 1.847-.733 1.847-1.788 0-1.055-.763-1.788-1.847-1.788Zm0 2.76c-.576 0-.995-.374-.995-.972 0-.599.419-.973.995-.973.568 0 .987.374.987.973 0 .591-.419.972-.987.972Zm5.604-2.827c0-1.055-.763-1.788-1.848-1.788s-1.855.733-1.855 1.788c0 1.054.77 1.787 1.855 1.787h.09l-1.197 1.758h.987l1.654-2.491c.202-.291.314-.651.314-1.054Zm-2.843 0c0-.599.427-.973.995-.973.569 0 .988.374.988.973 0 .598-.419.972-.988.972-.568 0-.995-.381-.995-.972Z" fill="#35373D"/><path d="M61.803 158.147h.928l-1.893-5.236h-1.032l-1.9 5.236h.934l.367-1.054h2.23l.366 1.054Zm-2.312-1.862.83-2.364.831 2.364h-1.66Zm5.766-3.374H63.2v5.236h2.057c1.444 0 2.507-1.159 2.507-2.618 0-1.466-1.063-2.618-2.507-2.618Zm0 4.414H64.06v-3.591h1.197c.995 0 1.676.755 1.676 1.795 0 1.032-.68 1.796-1.676 1.796Zm5.255-4.414h-2.058v5.236h2.058c1.444 0 2.506-1.159 2.506-2.618 0-1.466-1.063-2.618-2.506-2.618Zm0 4.414h-1.197v-3.591h1.197c.995 0 1.675.755 1.675 1.795 0 1.032-.68 1.796-1.675 1.796Zm6.181.822h.943l-1.19-2.034a1.652 1.652 0 0 0 1.04-1.519c0-.935-.748-1.683-1.683-1.683H73.71v5.236h.86v-1.907h1.017l1.108 1.907Zm-2.124-4.428h1.234c.457 0 .823.381.823.875 0 .486-.366.875-.823.875H74.57v-1.75Zm4.494 3.606v-1.414h2.095v-.816h-2.095v-1.361h2.282v-.823h-3.142v5.236h3.18v-.822h-2.32Zm4.757.92c1.092 0 1.855-.584 1.855-1.541 0-1.04-.875-1.31-1.743-1.586-.763-.24-1.055-.412-1.055-.816 0-.396.322-.651.823-.651.583 0 .912.315 1.1.734l.725-.419c-.329-.696-.965-1.152-1.825-1.152-.883 0-1.683.546-1.683 1.511 0 .987.793 1.286 1.608 1.533.778.24 1.19.397 1.19.861 0 .381-.292.688-.973.688-.71 0-1.115-.352-1.302-.883l-.74.434c.276.778.987 1.287 2.02 1.287Zm4.078 0c1.092 0 1.855-.584 1.855-1.541 0-1.04-.875-1.31-1.743-1.586-.763-.24-1.055-.412-1.055-.816 0-.396.322-.651.823-.651.583 0 .912.315 1.1.734l.725-.419c-.329-.696-.965-1.152-1.825-1.152-.883 0-1.683.546-1.683 1.511 0 .987.793 1.286 1.608 1.533.778.24 1.19.397 1.19.861 0 .381-.292.688-.973.688-.71 0-1.115-.352-1.302-.883l-.74.434c.276.778.987 1.287 2.02 1.287Z" fill="#8C92A4"/><rect x="140.607" y="88.686" width="159.393" height="168.902" rx="1.358" fill="#fff"/><rect x="189.965" y="66.497" width="60.678" height="60.678" rx="30.339" fill="#C2C2C2"/><path d="m227.119 95.498-4.87 4.87 4.87 4.863a6.883 6.883 0 0 0 9.734 0 6.886 6.886 0 0 0 1.492-7.5 6.882 6.882 0 0 0-11.226-2.233Z" fill="#82FF01"/><path d="m215.662 93.776 4.866 4.867 4.867-4.867a6.885 6.885 0 0 0 0-9.733l-4.867-4.867-4.866 4.867a6.873 6.873 0 0 0-2.017 4.866 6.88 6.88 0 0 0 2.017 4.867Z" fill="#172955"/><path d="m213.941 95.498 4.867 4.87-4.867 4.867a6.887 6.887 0 0 1-9.734 0 6.886 6.886 0 0 1-1.492-7.5 6.886 6.886 0 0 1 11.226-2.236Z" fill="#82FF01"/><path d="m226.23 112.184-5.701-10.638-5.702 10.638h11.403Z" fill="#172955"/><path d="M183.308 148.589h1.483l-1.872-3.202c.965-.389 1.637-1.331 1.637-2.39a2.638 2.638 0 0 0-2.649-2.649h-3.297v8.241h1.354v-3.002h1.601l1.743 3.002Zm-3.344-6.97h1.943c.718 0 1.295.601 1.295 1.378 0 .765-.577 1.377-1.295 1.377h-1.943v-2.755Zm6.327 4.568h4.686a3.94 3.94 0 0 0 .047-.53c0-1.695-1.201-3.108-2.955-3.108-1.849 0-3.108 1.354-3.108 3.097 0 1.766 1.259 3.096 3.202 3.096 1.154 0 2.037-.483 2.578-1.283l-1.047-.613c-.283.412-.813.73-1.519.73-.942 0-1.684-.471-1.884-1.389Zm-.012-1.036c.177-.883.824-1.448 1.778-1.448.765 0 1.507.436 1.684 1.448h-3.462Zm9.478-2.449-1.637 4.474-1.648-4.474h-1.389l2.296 5.887h1.471l2.296-5.887h-1.389Zm4.596 6.04c1.73 0 3.108-1.354 3.108-3.096 0-1.755-1.378-3.097-3.108-3.097-1.719 0-3.108 1.342-3.108 3.097 0 1.742 1.389 3.096 3.108 3.096Zm0-1.236c-1.036 0-1.837-.789-1.837-1.86 0-1.072.801-1.861 1.837-1.861s1.836.789 1.836 1.861c0 1.071-.8 1.86-1.836 1.86Zm4.11 1.083h1.272v-8.595h-1.272v8.595Zm6.592-5.887-1.636 4.474-1.648-4.474h-1.39l2.296 5.887h1.472l2.296-5.887h-1.39Zm2.818 3.485h4.686c.024-.165.047-.353.047-.53 0-1.695-1.201-3.108-2.955-3.108-1.848 0-3.108 1.354-3.108 3.097 0 1.766 1.26 3.096 3.202 3.096 1.154 0 2.037-.483 2.579-1.283l-1.048-.613c-.283.412-.813.73-1.519.73-.942 0-1.684-.471-1.884-1.389Zm-.011-1.036c.176-.883.824-1.448 1.777-1.448.766 0 1.507.436 1.684 1.448h-3.461Zm13.292 3.438h1.483l-1.872-3.202c.966-.389 1.637-1.331 1.637-2.39a2.638 2.638 0 0 0-2.649-2.649h-3.297v8.241h1.354v-3.002h1.602l1.742 3.002Zm-3.344-6.97h1.943c.718 0 1.295.601 1.295 1.378 0 .765-.577 1.377-1.295 1.377h-1.943v-2.755Zm6.328 4.568h4.685c.024-.165.047-.353.047-.53 0-1.695-1.2-3.108-2.955-3.108-1.848 0-3.108 1.354-3.108 3.097 0 1.766 1.26 3.096 3.202 3.096 1.154 0 2.037-.483 2.579-1.283l-1.048-.613c-.283.412-.812.73-1.519.73-.942 0-1.683-.471-1.883-1.389Zm-.012-1.036c.176-.883.824-1.448 1.778-1.448.765 0 1.507.436 1.683 1.448h-3.461Zm8.46 3.591c1.154 0 2.155-.601 2.649-1.531l-1.095-.624c-.282.542-.859.907-1.566.907-1.036 0-1.825-.789-1.825-1.848 0-1.06.789-1.849 1.825-1.849.707 0 1.284.353 1.543.907l1.095-.636c-.471-.918-1.472-1.519-2.626-1.519-1.778 0-3.108 1.342-3.108 3.097 0 1.742 1.33 3.096 3.108 3.096Zm7.423-6.04-1.507 4.274-1.754-4.274h-1.389l2.496 5.781-.059.118c-.295.777-.742 1.201-1.566 1.153v1.19c1.354.082 2.319-.672 2.873-2.167l2.26-6.075h-1.354Zm4.55 6.04c1.154 0 2.155-.601 2.649-1.531l-1.094-.624c-.283.542-.86.907-1.566.907-1.036 0-1.825-.789-1.825-1.848 0-1.06.789-1.849 1.825-1.849.706 0 1.283.353 1.542.907l1.095-.636c-.471-.918-1.472-1.519-2.626-1.519-1.777 0-3.108 1.342-3.108 3.097 0 1.742 1.331 3.096 3.108 3.096Zm3.421-.153h1.272v-8.595h-1.272v8.595Zm3.602-2.402h4.686a3.94 3.94 0 0 0 .047-.53c0-1.695-1.201-3.108-2.955-3.108-1.849 0-3.109 1.354-3.109 3.097 0 1.766 1.26 3.096 3.203 3.096 1.154 0 2.037-.483 2.578-1.283l-1.048-.613c-.282.412-.812.73-1.519.73-.941 0-1.683-.471-1.883-1.389Zm-.012-1.036c.177-.883.824-1.448 1.778-1.448.765 0 1.507.436 1.683 1.448h-3.461Z" fill="#35373D"/><path d="M180.458 157.054c-.584 0-1.025.239-1.31.628v-2.027h-.808v5.237h.808v-.539c.285.396.726.636 1.31.636 1.017 0 1.862-.86 1.862-1.968 0-1.114-.845-1.967-1.862-1.967Zm-.128 3.164c-.673 0-1.182-.501-1.182-1.197 0-.695.509-1.197 1.182-1.197.674 0 1.182.502 1.182 1.197 0 .696-.508 1.197-1.182 1.197Zm3.265-.853h2.977c.015-.104.03-.224.03-.336 0-1.077-.763-1.975-1.877-1.975-1.175 0-1.975.86-1.975 1.967 0 1.123.8 1.968 2.034 1.968.734 0 1.295-.307 1.639-.816l-.666-.389c-.18.262-.516.464-.965.464-.599 0-1.07-.299-1.197-.883Zm-.008-.658c.113-.561.524-.92 1.13-.92.486 0 .958.277 1.07.92h-2.2Zm5.6-1.653c-.509 0-.913.187-1.159.576v-.479h-.808v3.741h.808v-2.005c0-.763.419-1.078.95-1.078.508 0 .838.3.838.868v2.215h.808v-2.297c0-.973-.599-1.541-1.437-1.541Zm4.727-.741c-1.556 0-2.724 1.212-2.724 2.708 0 1.571 1.227 2.708 2.858 2.708.509 0 .905-.067 1.25-.179v-.254c-.352.127-.756.194-1.25.194-1.496 0-2.596-1.047-2.596-2.469 0-1.406 1.1-2.468 2.462-2.468 1.331 0 2.356 1.002 2.356 2.319 0 .92-.337 1.301-.733 1.301-.344 0-.456-.276-.456-.606v-1.69h-.689v.224a.973.973 0 0 0-.718-.299c-.658 0-1.137.524-1.137 1.219 0 .689.479 1.212 1.137 1.212a.948.948 0 0 0 .771-.366c.127.396.464.613.935.613.613 0 1.152-.501 1.152-1.608 0-1.235-.95-2.559-2.618-2.559Zm-.098 3.292a.562.562 0 0 1-.583-.584c0-.359.254-.591.583-.591.322 0 .576.232.576.591a.56.56 0 0 1-.576.584Zm6.394 1.287h.943l-1.19-2.035a1.652 1.652 0 0 0 1.04-1.519c0-.935-.748-1.683-1.683-1.683h-2.095v5.237h.861v-1.908h1.017l1.107 1.908Zm-2.124-4.429h1.234c.456 0 .823.381.823.875 0 .486-.367.875-.823.875h-1.234v-1.75Zm4.02 2.902h2.977c.015-.104.03-.224.03-.336 0-1.077-.763-1.975-1.877-1.975-1.175 0-1.975.86-1.975 1.967 0 1.123.8 1.968 2.034 1.968.734 0 1.295-.307 1.639-.816l-.666-.389c-.18.262-.516.464-.965.464-.599 0-1.07-.299-1.197-.883Zm-.008-.658c.113-.561.524-.92 1.13-.92.486 0 .958.277 1.07.92h-2.2Zm6.023-1.556-1.04 2.843-1.048-2.843h-.882l1.458 3.741h.936l1.458-3.741h-.882Zm2.92 3.838c1.1 0 1.975-.86 1.975-1.968a1.948 1.948 0 0 0-1.975-1.967 1.953 1.953 0 0 0-1.975 1.967c0 1.108.883 1.968 1.975 1.968Zm0-.786c-.658 0-1.167-.501-1.167-1.182 0-.68.509-1.182 1.167-1.182s1.167.502 1.167 1.182c0 .681-.509 1.182-1.167 1.182Zm2.612.689h.808v-5.462h-.808v5.462Zm4.188-3.741-1.039 2.843-1.048-2.843h-.882l1.458 3.741h.935l1.459-3.741h-.883Zm1.791 2.214h2.978c.014-.104.029-.224.029-.336 0-1.077-.763-1.975-1.877-1.975-1.175 0-1.975.86-1.975 1.967 0 1.123.8 1.968 2.035 1.968.733 0 1.294-.307 1.638-.816l-.666-.389c-.179.262-.516.464-.965.464-.598 0-1.07-.299-1.197-.883Zm-.007-.658c.112-.561.523-.92 1.129-.92.487 0 .958.277 1.07.92h-2.199Zm4.44-.927v-.629h-.808v3.741h.808v-1.886c0-.837.621-1.084 1.152-1.047v-.875c-.471 0-.928.187-1.152.696Zm2.116 1.585h2.977c.015-.104.03-.224.03-.336 0-1.077-.763-1.975-1.877-1.975-1.175 0-1.975.86-1.975 1.967 0 1.123.8 1.968 2.034 1.968.733 0 1.295-.307 1.639-.816l-.666-.389c-.18.262-.516.464-.965.464-.599 0-1.07-.299-1.197-.883Zm-.008-.658c.113-.561.524-.92 1.13-.92.486 0 .958.277 1.07.92h-2.2Zm5.376 2.282c.733 0 1.369-.382 1.683-.973l-.695-.396c-.18.344-.546.576-.995.576-.659 0-1.16-.501-1.16-1.175 0-.673.501-1.174 1.16-1.174.449 0 .815.224.98.576l.695-.404c-.299-.584-.935-.965-1.668-.965-1.129 0-1.975.853-1.975 1.967 0 1.108.846 1.968 1.975 1.968Zm4.717-3.838-.958 2.716-1.114-2.716h-.883l1.586 3.673-.038.075c-.187.494-.471.763-.994.733v.756c.86.052 1.473-.427 1.825-1.377l1.436-3.86h-.86Zm2.891 3.838c.733 0 1.369-.382 1.684-.973l-.696-.396c-.18.344-.546.576-.995.576-.658 0-1.16-.501-1.16-1.175 0-.673.502-1.174 1.16-1.174.449 0 .815.224.98.576l.696-.404c-.3-.584-.936-.965-1.669-.965-1.129 0-1.975.853-1.975 1.967 0 1.108.846 1.968 1.975 1.968Zm2.174-.097h.808v-5.462h-.808v5.462Zm2.288-1.527h2.978c.015-.104.03-.224.03-.336 0-1.077-.763-1.975-1.878-1.975-1.174 0-1.975.86-1.975 1.967 0 1.123.801 1.968 2.035 1.968.733 0 1.294-.307 1.638-.816l-.666-.389c-.179.262-.516.464-.965.464-.598 0-1.069-.299-1.197-.883Zm-.007-.658c.112-.561.524-.92 1.13-.92.486 0 .957.277 1.069.92h-2.199Zm3.819 2.274a.56.56 0 1 0 0-1.122.556.556 0 0 0-.561.561.56.56 0 0 0 .561.561Zm2.793.008c.733 0 1.369-.382 1.683-.973l-.696-.396c-.179.344-.546.576-.995.576-.658 0-1.159-.501-1.159-1.175 0-.673.501-1.174 1.159-1.174.449 0 .816.224.98.576l.696-.404c-.299-.584-.935-.965-1.668-.965-1.13 0-1.975.853-1.975 1.967 0 1.108.845 1.968 1.975 1.968Zm3.881 0c1.099 0 1.975-.86 1.975-1.968a1.948 1.948 0 0 0-1.975-1.967 1.952 1.952 0 0 0-1.975 1.967c0 1.108.882 1.968 1.975 1.968Zm0-.786c-.659 0-1.167-.501-1.167-1.182 0-.68.508-1.182 1.167-1.182.658 0 1.167.502 1.167 1.182 0 .681-.509 1.182-1.167 1.182Zm6.696-3.149c-.501 0-.897.202-1.144.591-.217-.374-.576-.591-1.063-.591-.463 0-.83.179-1.069.546v-.449h-.808v3.741h.808v-2.095c0-.681.374-.988.83-.988.441 0 .703.292.703.816v2.267h.808v-2.095c0-.681.337-.988.816-.988.441 0 .725.292.725.816v2.267h.808v-2.319c0-.936-.568-1.519-1.414-1.519Z" fill="#656B7D"/><path d="M152.376 197.111a1.27 1.27 0 0 0 .598-1.107c0-1.01-.793-1.504-1.661-1.504-.875 0-1.66.494-1.66 1.504 0 .501.239.875.591 1.107-.479.269-.771.726-.771 1.272 0 .972.748 1.548 1.84 1.548 1.093 0 1.833-.576 1.833-1.548 0-.554-.284-1.003-.77-1.272Zm-1.063-1.796c.434 0 .801.24.801.726 0 .464-.367.726-.801.726-.441 0-.8-.262-.8-.726 0-.486.359-.726.8-.726Zm0 3.801c-.568 0-.98-.284-.98-.816 0-.538.412-.815.98-.815.561 0 .973.277.973.815 0 .532-.412.816-.973.816Zm3.326-4.519-1.377.487.21.733 1.055-.3v4.317h.86v-5.237h-.748Zm4.38 2.514a1.27 1.27 0 0 0 .599-1.107c0-1.01-.793-1.504-1.661-1.504-.875 0-1.661.494-1.661 1.504 0 .501.24.875.591 1.107-.478.269-.77.726-.77 1.272 0 .972.748 1.548 1.84 1.548s1.833-.576 1.833-1.548c0-.554-.284-1.003-.771-1.272Zm-1.062-1.796c.434 0 .801.24.801.726 0 .464-.367.726-.801.726-.441 0-.8-.262-.8-.726 0-.486.359-.726.8-.726Zm0 3.801c-.568 0-.98-.284-.98-.816 0-.538.412-.815.98-.815.561 0 .973.277.973.815 0 .532-.412.816-.973.816Zm2.522-1.167h2.768v-.778h-2.768v.778Zm7.086-1.661c0-1.055-.763-1.788-1.848-1.788s-1.855.733-1.855 1.788c0 1.055.77 1.788 1.855 1.788h.09l-1.197 1.758h.988l1.653-2.491a1.83 1.83 0 0 0 .314-1.055Zm-2.843 0c0-.598.427-.973.995-.973.569 0 .988.375.988.973s-.419.973-.988.973c-.568 0-.995-.382-.995-.973Zm6.1.823c.359-.232.599-.606.599-1.107 0-1.01-.793-1.504-1.661-1.504-.875 0-1.661.494-1.661 1.504 0 .501.24.875.591 1.107-.478.269-.77.726-.77 1.272 0 .972.748 1.548 1.84 1.548s1.833-.576 1.833-1.548c0-.554-.284-1.003-.771-1.272Zm-1.062-1.796c.434 0 .801.24.801.726 0 .464-.367.726-.801.726-.441 0-.8-.262-.8-.726 0-.486.359-.726.8-.726Zm0 3.801c-.568 0-.98-.284-.98-.816 0-.538.412-.815.98-.815.561 0 .973.277.973.815 0 .532-.412.816-.973.816Zm4.019-2.544h-.659l.09-1.167h2.125v-.808h-2.918l-.202 2.813h1.526c.569 0 .958.314.958.838s-.389.845-.973.845c-.546 0-.905-.247-1.04-.71l-.74.426c.277.756.987 1.122 1.78 1.122.965 0 1.833-.583 1.833-1.683 0-1.092-.83-1.676-1.78-1.676Zm2.449 1.377h2.768v-.778h-2.768v.778Zm5.695-1.212 1.062-1.407v-.733h-3.216v.808h2.191l-1.129 1.489.344.516h.194c.591 0 .973.314.973.838s-.382.845-.973.845c-.523 0-.875-.232-1.024-.673l-.734.426c.292.734.988 1.085 1.758 1.085.965 0 1.833-.583 1.833-1.683 0-.815-.561-1.339-1.279-1.511Zm3.49-.382h-.097l1.197-1.758h-.98l-1.661 2.491a1.83 1.83 0 0 0-.314 1.055c0 1.055.763 1.788 1.855 1.788 1.085 0 1.848-.733 1.848-1.788 0-1.055-.763-1.788-1.848-1.788Zm0 2.761c-.576 0-.995-.374-.995-.973 0-.598.419-.972.995-.972.569 0 .988.374.988.972 0 .591-.419.973-.988.973Zm3.925-2.544h-.658l.09-1.167h2.124v-.808h-2.917l-.202 2.813h1.526c.568 0 .957.314.957.838s-.389.845-.972.845c-.546 0-.905-.247-1.04-.71l-.741.426c.277.756.988 1.122 1.781 1.122.965 0 1.833-.583 1.833-1.683 0-1.092-.831-1.676-1.781-1.676Zm2.048 3.262h3.449v-.83h-2.17l1.182-1.182c.502-.509.891-1.055.891-1.706 0-1.04-.816-1.616-1.676-1.616-.696 0-1.354.344-1.691 1.062l.726.427c.202-.419.539-.651.972-.651.449 0 .808.284.808.808 0 .396-.291.778-.665 1.152l-1.826 1.863v.673Z" fill="#35373D"/><path d="M151.665 183.277h-1.93v5.237h.86v-1.796h1.07c.987 0 1.736-.755 1.736-1.72 0-.973-.749-1.721-1.736-1.721Zm0 2.633h-1.07v-1.825h1.07c.509 0 .875.381.875.913 0 .523-.366.912-.875.912Zm5.494-2.633v2.147h-2.245v-2.147h-.86v5.237h.86v-2.267h2.245v2.267h.86v-5.237h-.86Zm4.267 5.334a2.691 2.691 0 0 0 2.715-2.716 2.691 2.691 0 0 0-2.715-2.715 2.697 2.697 0 0 0-2.716 2.715 2.697 2.697 0 0 0 2.716 2.716Zm0-.838c-1.047 0-1.855-.8-1.855-1.878 0-1.077.808-1.877 1.855-1.877s1.855.8 1.855 1.877c0 1.078-.808 1.878-1.855 1.878Zm6.549-4.496v3.553l-2.469-3.553h-.673v5.237h.86v-3.554l2.469 3.554h.673v-5.237h-.86Zm2.673 4.414v-1.414h2.094v-.816h-2.094V184.1h2.281v-.823h-3.142v5.237h3.18v-.823h-2.319Z" fill="#8C92A4"/><path d="M263.925 198.398c0-.995-.763-1.28-1.474-1.549v-1.481c.307.067.531.254.666.591l.726-.419c-.27-.614-.786-.943-1.392-1.025v-.666h-.486v.659c-.778.074-1.459.583-1.459 1.466 0 .957.733 1.279 1.459 1.548v1.556c-.486-.052-.793-.314-.958-.733l-.74.427c.261.68.867 1.099 1.698 1.152v.658h.486v-.666c.853-.104 1.474-.651 1.474-1.518Zm-2.559-2.424c0-.337.232-.561.599-.621v1.302c-.419-.195-.599-.367-.599-.681Zm1.085 3.097v-1.362c.382.172.614.345.614.696 0 .322-.202.584-.614.666Zm3.661-2.499h-.659l.09-1.167h2.125v-.808h-2.918l-.202 2.813h1.526c.569 0 .958.314.958.838s-.389.845-.973.845c-.546 0-.905-.247-1.039-.71l-.741.426c.277.756.987 1.122 1.78 1.122.965 0 1.833-.583 1.833-1.683 0-1.092-.83-1.676-1.78-1.676Zm3.373 2.364h-.898l-.299 1.945h.673l.524-1.945Zm.525.898h3.448v-.83h-2.169l1.182-1.182c.501-.509.89-1.055.89-1.706 0-1.04-.815-1.616-1.676-1.616-.695 0-1.354.344-1.69 1.062l.725.427c.202-.419.539-.651.973-.651.449 0 .808.284.808.808 0 .396-.292.778-.666 1.152l-1.825 1.863v.673Zm5.035-5.237-1.377.487.21.733 1.054-.3v4.317h.861v-5.237h-.748Zm1.328 0v.823h2.394l-1.811 4.414h.906l1.84-4.489v-.748h-3.329Zm3.294 5.327a.565.565 0 0 0 .561-.561.56.56 0 0 0-.561-.561.555.555 0 0 0-.561.561.56.56 0 0 0 .561.561Zm4.02-2.813c.359-.232.599-.606.599-1.107 0-1.01-.793-1.504-1.661-1.504-.875 0-1.661.494-1.661 1.504 0 .501.24.875.591 1.107-.479.269-.77.726-.77 1.272 0 .972.748 1.548 1.84 1.548s1.833-.576 1.833-1.548c0-.554-.284-1.003-.771-1.272Zm-1.062-1.796c.434 0 .8.24.8.726 0 .464-.366.726-.8.726-.441 0-.8-.262-.8-.726 0-.486.359-.726.8-.726Zm0 3.801c-.569 0-.98-.284-.98-.816 0-.538.411-.815.98-.815.561 0 .972.277.972.815 0 .532-.411.816-.972.816Zm5.888-2.828c0-1.055-.763-1.788-1.848-1.788s-1.855.733-1.855 1.788c0 1.055.77 1.788 1.855 1.788h.09l-1.197 1.758h.987l1.654-2.491a1.83 1.83 0 0 0 .314-1.055Zm-2.843 0c0-.598.426-.973.995-.973s.988.375.988.973-.419.973-.988.973-.995-.382-.995-.973Z" fill="#00834E"/><path d="M275.522 183.277h-1.93v5.237h.86v-1.796h1.07c.988 0 1.736-.755 1.736-1.72 0-.973-.748-1.721-1.736-1.721Zm0 2.633h-1.07v-1.825h1.07c.509 0 .875.381.875.913 0 .523-.366.912-.875.912Zm5.275 2.604h.927l-1.893-5.237h-1.032l-1.9 5.237h.935l.367-1.055h2.229l.367 1.055Zm-2.312-1.863.83-2.364.831 2.364h-1.661Zm3.709-3.374v5.237h.86v-5.237h-.86Zm3.87 0h-2.057v5.237h2.057c1.444 0 2.506-1.16 2.506-2.619 0-1.466-1.062-2.618-2.506-2.618Zm0 4.414h-1.197V184.1h1.197c.995 0 1.676.755 1.676 1.795 0 1.033-.681 1.796-1.676 1.796Z" fill="#8C92A4"/><path d="M273.769 233.718c0-.995-.763-1.279-1.474-1.549v-1.481c.307.067.532.255.666.591l.726-.419c-.269-.613-.786-.942-1.392-1.025v-.665h-.486v.658c-.778.075-1.459.583-1.459 1.466 0 .958.733 1.279 1.459 1.549v1.556c-.486-.053-.793-.314-.957-.733l-.741.426c.262.681.868 1.1 1.698 1.152v.658h.486v-.665c.853-.105 1.474-.651 1.474-1.519Zm-2.558-2.424c0-.337.232-.561.598-.621v1.302c-.419-.195-.598-.367-.598-.681Zm1.084 3.097v-1.361c.382.172.614.344.614.695 0 .322-.202.584-.614.666Zm3.96.861c1.317 0 2.058-1.1 2.058-2.716s-.741-2.716-2.058-2.716c-1.316 0-2.057 1.1-2.057 2.716s.741 2.716 2.057 2.716Zm0-.838c-.77 0-1.197-.674-1.197-1.878 0-1.204.427-1.878 1.197-1.878.778 0 1.197.674 1.197 1.878 0 1.204-.419 1.878-1.197 1.878Zm2.994.83a.56.56 0 1 0 0-1.122.556.556 0 0 0-.562.561.56.56 0 0 0 .562.561Zm2.985.008c1.317 0 2.057-1.1 2.057-2.716s-.74-2.716-2.057-2.716c-1.316 0-2.057 1.1-2.057 2.716s.741 2.716 2.057 2.716Zm0-.838c-.77 0-1.197-.674-1.197-1.878 0-1.204.427-1.878 1.197-1.878.778 0 1.197.674 1.197 1.878 0 1.204-.419 1.878-1.197 1.878Zm4.619.838c1.316 0 2.057-1.1 2.057-2.716s-.741-2.716-2.057-2.716c-1.317 0-2.057 1.1-2.057 2.716s.74 2.716 2.057 2.716Zm0-.838c-.771 0-1.197-.674-1.197-1.878 0-1.204.426-1.878 1.197-1.878.778 0 1.197.674 1.197 1.878 0 1.204-.419 1.878-1.197 1.878Z" fill="#C20101"/><path d="M242.125 223.93a2.692 2.692 0 0 0 2.715-2.715 2.692 2.692 0 0 0-2.715-2.716 2.697 2.697 0 0 0-2.716 2.716 2.697 2.697 0 0 0 2.716 2.715Zm0-.838c-1.047 0-1.855-.8-1.855-1.877 0-1.078.808-1.878 1.855-1.878s1.855.8 1.855 1.878c0 1.077-.808 1.877-1.855 1.877Zm5.293.838c1.145 0 1.982-.703 1.982-1.833v-3.501h-.86v3.449c0 .613-.352 1.047-1.122 1.047-.771 0-1.122-.434-1.122-1.047v-3.449h-.861v3.501c0 1.13.831 1.833 1.983 1.833Zm6.282-5.334h-3.815v.823h1.481v4.414h.86v-4.414h1.474v-.823Zm2.14 5.334c1.092 0 1.855-.583 1.855-1.541 0-1.04-.875-1.309-1.743-1.586-.763-.239-1.055-.411-1.055-.815 0-.397.322-.651.823-.651.584 0 .913.314 1.1.733l.726-.419c-.33-.696-.966-1.152-1.826-1.152-.883 0-1.683.546-1.683 1.511 0 .988.793 1.287 1.608 1.534.778.239 1.19.396 1.19.86 0 .382-.292.688-.973.688-.71 0-1.114-.351-1.301-.882l-.741.434c.277.778.987 1.286 2.02 1.286Zm5.717-5.334h-3.816v.823h1.482v4.414h.86v-4.414h1.474v-.823Zm3.581 5.237h.928l-1.893-5.237h-1.032l-1.9 5.237h.935l.366-1.055h2.23l.366 1.055Zm-2.312-1.863.831-2.364.83 2.364h-1.661Zm6.851-3.374v3.554l-2.468-3.554h-.674v5.237h.861v-3.553l2.468 3.553h.674v-5.237h-.861Zm3.87 0h-2.057v5.237h2.057c1.444 0 2.506-1.16 2.506-2.618 0-1.467-1.062-2.619-2.506-2.619Zm0 4.414h-1.197v-3.591h1.197c.995 0 1.676.756 1.676 1.796 0 1.032-.681 1.795-1.676 1.795Zm3.197-4.414v5.237h.861v-5.237h-.861Zm4.956 0v3.554l-2.469-3.554h-.674v5.237h.861v-3.553l2.469 3.553h.673v-5.237h-.86Zm6.907 2.529h-2.619v.77h1.751c-.157.704-.741 1.197-1.691 1.197-1.174 0-1.937-.815-1.937-1.87 0-1.07.778-1.885 1.885-1.885.688 0 1.272.344 1.541.83l.741-.426c-.442-.741-1.287-1.242-2.282-1.242-1.571 0-2.746 1.212-2.746 2.716 0 1.503 1.16 2.715 2.791 2.715 1.533 0 2.566-1.017 2.566-2.446v-.359Z" fill="#8C92A4"/><path d="m150.685 229.012-1.377.487.21.733 1.055-.299v4.316h.86v-5.237h-.748Zm1.448 5.237h3.449v-.83h-2.17l1.182-1.182c.502-.509.891-1.055.891-1.706 0-1.04-.816-1.616-1.676-1.616-.696 0-1.354.344-1.691 1.062l.726.427c.202-.419.538-.651.972-.651.449 0 .808.284.808.808 0 .396-.292.778-.666 1.152l-1.825 1.863v.673Zm3.6-5.237v.823h2.394l-1.81 4.414h.905l1.84-4.489v-.748h-3.329Zm7.506 5.334c1.092 0 1.855-.583 1.855-1.541 0-1.04-.875-1.309-1.743-1.586-.763-.239-1.055-.411-1.055-.815 0-.397.322-.651.823-.651.583 0 .913.314 1.1.733l.725-.419c-.329-.696-.965-1.152-1.825-1.152-.883 0-1.683.546-1.683 1.511 0 .988.793 1.287 1.608 1.534.778.239 1.19.396 1.19.86 0 .382-.292.688-.973.688-.711 0-1.115-.351-1.302-.882l-.74.434c.277.778.987 1.286 2.02 1.286Zm4.979-3.837v2.004c0 .763-.419 1.078-.951 1.078-.508 0-.837-.3-.837-.868v-2.214h-.808v2.296c0 .973.598 1.541 1.436 1.541.509 0 .913-.187 1.16-.576v.479h.808v-3.74h-.808Zm3.626-.098c-.508 0-.912.187-1.159.576v-.478h-.808v3.74h.808v-2.005c0-.763.419-1.077.95-1.077.508 0 .838.299.838.868v2.214h.808v-2.297c0-.972-.599-1.541-1.437-1.541Zm2.939 1.13c0-.269.254-.397.546-.397.307 0 .568.135.703.427l.681-.382c-.262-.493-.771-.778-1.384-.778-.763 0-1.369.442-1.369 1.145 0 1.339 2.012.965 2.012 1.631 0 .299-.277.419-.636.419-.411 0-.71-.202-.83-.539l-.696.404c.24.539.778.875 1.526.875.808 0 1.459-.404 1.459-1.152 0-1.384-2.012-.972-2.012-1.653Zm3.17 1.182h2.977c.015-.105.03-.225.03-.337 0-1.077-.763-1.975-1.878-1.975-1.174 0-1.975.861-1.975 1.968 0 1.122.801 1.967 2.035 1.967.733 0 1.294-.306 1.638-.815l-.665-.389c-.18.262-.516.464-.965.464-.599 0-1.07-.3-1.197-.883Zm-.008-.658c.112-.561.524-.921 1.13-.921.486 0 .957.277 1.07.921h-2.2Zm5.603-.778v-.778h-.928v-1.048l-.808.24v.808h-.688v.778h.688v1.795c0 .973.494 1.317 1.736 1.167v-.726c-.614.03-.928.038-.928-.441v-1.795h.928Zm5.916 2.962h.928l-1.893-5.237h-1.032l-1.901 5.237h.936l.366-1.055h2.229l.367 1.055Zm-2.312-1.863.831-2.364.83 2.364h-1.661Zm6.047-1.877-1.04 2.842-1.047-2.842h-.883l1.459 3.74h.935l1.459-3.74h-.883Zm1.79 2.214h2.978c.015-.105.03-.225.03-.337 0-1.077-.763-1.975-1.878-1.975-1.174 0-1.975.861-1.975 1.968 0 1.122.801 1.967 2.035 1.967.733 0 1.294-.306 1.638-.815l-.666-.389c-.179.262-.516.464-.965.464-.598 0-1.069-.3-1.197-.883Zm-.007-.658c.112-.561.524-.921 1.13-.921.486 0 .957.277 1.069.921h-2.199Zm3.819 2.274a.56.56 0 1 0 0-1.122.56.56 0 1 0 0 1.122Zm-48.206 8.087v-4.414h-.86v5.237h2.992v-.823h-2.132Zm4.274.92c1.099 0 1.975-.86 1.975-1.967a1.949 1.949 0 0 0-1.975-1.968 1.952 1.952 0 0 0-1.975 1.968c0 1.107.882 1.967 1.975 1.967Zm0-.785c-.659 0-1.167-.501-1.167-1.182 0-.681.508-1.182 1.167-1.182.658 0 1.167.501 1.167 1.182 0 .681-.509 1.182-1.167 1.182Zm3.264-2.02c0-.269.255-.397.546-.397.307 0 .569.135.703.427l.681-.382c-.262-.493-.77-.778-1.384-.778-.763 0-1.369.442-1.369 1.145 0 1.339 2.013.965 2.013 1.631 0 .299-.277.419-.636.419-.412 0-.711-.202-.831-.539l-.695.404c.239.539.778.875 1.526.875.808 0 1.459-.404 1.459-1.152 0-1.384-2.013-.972-2.013-1.653Zm7.87 2.708h.927l-1.892-5.237h-1.033l-1.9 5.237h.935l.367-1.055h2.229l.367 1.055Zm-2.312-1.863.83-2.364.831 2.364h-1.661Zm5.624-1.975c-.509 0-.913.187-1.16.576v-.478h-.807v3.74h.807v-2.005c0-.763.419-1.077.951-1.077.508 0 .837.299.837.868v2.214h.808v-2.297c0-.972-.598-1.541-1.436-1.541Zm5.19.098v.553c-.284-.404-.725-.651-1.301-.651-1.055 0-1.886.861-1.886 1.93 0 1.07.831 1.93 1.886 1.93.576 0 1.017-.246 1.301-.65v.456c0 .651-.419 1.032-1.114 1.032-.651 0-.928-.254-1.093-.576l-.695.404c.314.599.95.905 1.773.905.98 0 1.922-.561 1.922-1.765v-3.568h-.793Zm-1.189 3.007c-.681 0-1.19-.501-1.19-1.175 0-.673.509-1.174 1.19-1.174.681 0 1.189.501 1.189 1.174 0 .674-.508 1.175-1.189 1.175Zm3.466-.793h2.978c.015-.105.03-.225.03-.337 0-1.077-.763-1.975-1.878-1.975-1.175 0-1.975.861-1.975 1.968 0 1.122.8 1.967 2.035 1.967.733 0 1.294-.306 1.638-.815l-.666-.389c-.179.262-.516.464-.965.464-.598 0-1.069-.3-1.197-.883Zm-.007-.658c.112-.561.524-.921 1.129-.921.487 0 .958.277 1.07.921h-2.199Zm3.632 2.184h.808v-5.461h-.808v5.461Zm2.289-1.526h2.977c.015-.105.03-.225.03-.337 0-1.077-.763-1.975-1.878-1.975-1.174 0-1.975.861-1.975 1.968 0 1.122.801 1.967 2.035 1.967.733 0 1.294-.306 1.638-.815l-.665-.389c-.18.262-.517.464-.966.464-.598 0-1.069-.3-1.196-.883Zm-.008-.658c.112-.561.524-.921 1.13-.921.486 0 .957.277 1.069.921h-2.199Zm4.212-.524c0-.269.254-.397.546-.397.307 0 .568.135.703.427l.681-.382c-.262-.493-.771-.778-1.384-.778-.763 0-1.369.442-1.369 1.145 0 1.339 2.012.965 2.012 1.631 0 .299-.277.419-.636.419-.411 0-.71-.202-.83-.539l-.696.404c.24.539.778.875 1.526.875.808 0 1.459-.404 1.459-1.152 0-1.384-2.012-.972-2.012-1.653Zm3.678 1.81h-.898l-.299 1.945h.673l.524-1.945Zm5.069.995c.965 0 1.818-.493 2.252-1.257l-.748-.426c-.269.516-.845.845-1.504.845-1.129 0-1.877-.8-1.877-1.877 0-1.078.748-1.878 1.877-1.878.659 0 1.227.329 1.504.845l.748-.434c-.441-.763-1.294-1.249-2.252-1.249-1.593 0-2.738 1.197-2.738 2.716 0 1.518 1.145 2.715 2.738 2.715Zm6.248-.097h.928l-1.893-5.237h-1.032l-1.9 5.237h.935l.366-1.055h2.23l.366 1.055Zm-2.311-1.863.83-2.364.83 2.364h-1.66Zm8.852-1.683c0-1.055-.763-1.788-1.848-1.788s-1.855.733-1.855 1.788c0 1.055.77 1.788 1.855 1.788h.09l-1.197 1.758h.987l1.653-2.491c.202-.292.315-.651.315-1.055Zm-2.843 0c0-.598.426-.972.995-.972.568 0 .987.374.987.972 0 .599-.419.973-.987.973-.569 0-.995-.382-.995-.973Zm7.001 1.803h-.598v-1.362h-.868v1.362h-1.638l1.803-3.494h-.936l-1.802 3.494v.8h2.573v.943h.868v-.943h.598v-.8Zm.266 1.743h3.449v-.83h-2.169l1.182-1.182c.501-.509.89-1.055.89-1.706 0-1.04-.816-1.616-1.676-1.616-.696 0-1.354.344-1.691 1.062l.726.427c.202-.419.539-.651.973-.651.448 0 .808.284.808.808 0 .396-.292.778-.666 1.152l-1.826 1.863v.673Zm5.035-5.237-1.376.487.209.733 1.055-.299v4.316h.86v-5.237h-.748Zm3.274 1.975h-.659l.09-1.167h2.125v-.808h-2.918l-.202 2.813h1.526c.569 0 .958.314.958.838s-.389.845-.973.845c-.546 0-.905-.246-1.039-.71l-.741.426c.277.756.987 1.122 1.78 1.122.965 0 1.833-.583 1.833-1.683 0-1.092-.83-1.676-1.78-1.676Z" fill="#35373D"/><path d="M153.146 223.834h.928l-1.893-5.237h-1.032l-1.9 5.237h.935l.366-1.055h2.23l.366 1.055Zm-2.311-1.863.83-2.364.83 2.364h-1.66Zm5.766-3.374h-2.058v5.237h2.058c1.444 0 2.506-1.16 2.506-2.618 0-1.467-1.062-2.619-2.506-2.619Zm0 4.414h-1.197v-3.591h1.197c.995 0 1.675.756 1.675 1.796 0 1.032-.68 1.795-1.675 1.795Zm5.254-4.414h-2.057v5.237h2.057c1.444 0 2.506-1.16 2.506-2.618 0-1.467-1.062-2.619-2.506-2.619Zm0 4.414h-1.197v-3.591h1.197c.995 0 1.676.756 1.676 1.796 0 1.032-.681 1.795-1.676 1.795Zm6.182.823h.942l-1.189-2.035a1.652 1.652 0 0 0 1.04-1.518c0-.936-.748-1.684-1.683-1.684h-2.095v5.237h.86v-1.908h1.018l1.107 1.908Zm-2.125-4.429h1.235c.456 0 .822.382.822.876 0 .486-.366.875-.822.875h-1.235v-1.751Zm4.495 3.606v-1.414h2.094v-.815h-2.094v-1.362h2.281v-.823h-3.142v5.237h3.18v-.823h-2.319Zm4.756.92c1.092 0 1.855-.583 1.855-1.541 0-1.04-.875-1.309-1.743-1.586-.763-.239-1.055-.411-1.055-.815 0-.397.322-.651.823-.651.584 0 .913.314 1.1.733l.725-.419c-.329-.696-.965-1.152-1.825-1.152-.883 0-1.683.546-1.683 1.511 0 .988.793 1.287 1.608 1.534.778.239 1.19.396 1.19.86 0 .382-.292.688-.973.688-.71 0-1.114-.351-1.301-.882l-.741.434c.277.778.987 1.286 2.02 1.286Zm4.078 0c1.092 0 1.855-.583 1.855-1.541 0-1.04-.875-1.309-1.743-1.586-.763-.239-1.055-.411-1.055-.815 0-.397.322-.651.823-.651.584 0 .913.314 1.1.733l.725-.419c-.329-.696-.965-1.152-1.825-1.152-.883 0-1.683.546-1.683 1.511 0 .988.793 1.287 1.608 1.534.778.239 1.19.396 1.19.86 0 .382-.292.688-.973.688-.71 0-1.114-.351-1.301-.882l-.741.434c.277.778.987 1.286 2.02 1.286Z" fill="#8C92A4"/><rect y="113.317" width="159.393" height="168.902" rx="1.358" fill="#fff"/><rect x="49.357" y="91.129" width="60.678" height="60.678" rx="30.339" fill="#181034"/><g clip-path="url(#b)"><path d="M81.193 111.54v1.926l10.914 5.457-10.914 5.457v16.05l12.84-6.42v-16.05l-12.84-6.42Z" fill="#fff"/><path d="m65.142 125.343 12.84 6.42v-1.926l-10.914-5.457 10.914-5.457v-16.05l-12.84 6.42v16.05Z" fill="#6F6A80"/></g><path d="M40.318 164.98h-3.037v8.242h1.353v-2.826h1.684c1.554 0 2.731-1.189 2.731-2.708 0-1.53-1.177-2.708-2.731-2.708Zm0 4.145h-1.684v-2.873h1.684c.8 0 1.378.6 1.378 1.436 0 .824-.577 1.437-1.378 1.437Zm9.467 4.097-2.579-4.239 2.437-4.003h-1.542l-1.672 2.744-1.672-2.744h-1.53l2.437 4.003-2.59 4.239h1.542l1.813-2.979 1.813 2.979h1.543Zm6.205-8.242h-6.004v1.295h2.331v6.947h1.354v-6.947h2.32v-1.295Zm7.548 8.395c1.518 0 2.86-.777 3.543-1.978l-1.177-.671c-.424.812-1.33 1.33-2.366 1.33-1.778 0-2.956-1.26-2.956-2.955s1.178-2.955 2.956-2.955c1.036 0 1.93.518 2.366 1.33l1.177-.683c-.694-1.2-2.037-1.966-3.543-1.966-2.508 0-4.31 1.884-4.31 4.274s1.802 4.274 4.31 4.274Zm7.206 0c1.73 0 3.108-1.354 3.108-3.097 0-1.754-1.378-3.096-3.108-3.096-1.72 0-3.109 1.342-3.109 3.096a3.08 3.08 0 0 0 3.109 3.097Zm0-1.236c-1.037 0-1.837-.789-1.837-1.861 0-1.071.8-1.86 1.837-1.86 1.036 0 1.836.789 1.836 1.86 0 1.072-.8 1.861-1.836 1.861Zm7.207-4.957c-.8 0-1.437.294-1.825.907v-.754h-1.272v5.887h1.272v-3.156c0-1.2.66-1.695 1.495-1.695.8 0 1.319.471 1.319 1.366v3.485h1.271v-3.615c0-1.53-.942-2.425-2.26-2.425Zm6.767 1.377v-1.224h-1.46v-1.648l-1.272.377v1.271h-1.083v1.224h1.083v2.826c0 1.531.777 2.072 2.732 1.837v-1.142c-.966.047-1.46.059-1.46-.695v-2.826h1.46Zm2.335-.235v-.989H85.78v5.887h1.272v-2.967c0-1.319.977-1.707 1.813-1.648v-1.378c-.742 0-1.46.294-1.813 1.095Zm6.992-.989v.836c-.448-.612-1.142-.989-2.06-.989-1.602 0-2.932 1.342-2.932 3.096 0 1.743 1.33 3.097 2.931 3.097.919 0 1.613-.377 2.06-1.001v.848h1.272v-5.887h-1.271Zm-1.86 4.827c-1.06 0-1.86-.789-1.86-1.884 0-1.095.8-1.883 1.86-1.883 1.059 0 1.86.788 1.86 1.883s-.801 1.884-1.86 1.884Zm7.245 1.213c1.153 0 2.154-.601 2.649-1.531l-1.095-.624c-.283.542-.86.907-1.566.907-1.036 0-1.825-.789-1.825-1.849 0-1.059.789-1.848 1.825-1.848.706 0 1.283.353 1.542.906l1.095-.635c-.471-.919-1.472-1.519-2.626-1.519-1.777 0-3.108 1.342-3.108 3.096 0 1.743 1.33 3.097 3.109 3.097Zm6.705-4.816v-1.224h-1.46v-1.648l-1.271.377v1.271h-1.083v1.224h1.083v2.826c0 1.531.777 2.072 2.731 1.837v-1.142c-.965.047-1.46.059-1.46-.695v-2.826h1.46Zm1.642-2.107a.822.822 0 0 0 .812-.812.814.814 0 0 0-.812-.813.814.814 0 0 0-.812.813c0 .435.365.812.812.812Zm-.636 6.77h1.272v-5.887h-1.272v5.887Zm5.697-6.04c-.8 0-1.436.294-1.825.907v-.754h-1.271v5.887h1.271v-3.156c0-1.2.66-1.695 1.496-1.695.8 0 1.318.471 1.318 1.366v3.485h1.272v-3.615c0-1.53-.942-2.425-2.261-2.425Zm8.169.153v.871c-.448-.636-1.142-1.024-2.049-1.024-1.66 0-2.967 1.354-2.967 3.037 0 1.684 1.307 3.038 2.967 3.038.907 0 1.601-.389 2.049-1.024v.718c0 1.024-.66 1.625-1.755 1.625-1.024 0-1.46-.401-1.719-.907l-1.095.636c.495.942 1.496 1.424 2.791 1.424 1.542 0 3.025-.883 3.025-2.778v-5.616h-1.247Zm-1.872 4.733c-1.072 0-1.872-.789-1.872-1.849 0-1.059.8-1.848 1.872-1.848 1.071 0 1.872.789 1.872 1.848 0 1.06-.801 1.849-1.872 1.849Z" fill="#35373D"/><path d="M38.25 181.686c-.508 0-.912.187-1.159.576v-1.975h-.808v5.236h.808v-2.004c0-.764.42-1.078.95-1.078.509 0 .838.3.838.868v2.214h.808v-2.296c0-.973-.598-1.541-1.436-1.541Zm2.85 2.311h2.977c.015-.104.03-.224.03-.336 0-1.078-.763-1.975-1.878-1.975-1.175 0-1.975.86-1.975 1.967 0 1.122.8 1.968 2.035 1.968.733 0 1.294-.307 1.638-.816l-.666-.389c-.18.262-.516.464-.965.464-.598 0-1.07-.299-1.197-.883Zm-.008-.658c.112-.561.523-.92 1.13-.92.486 0 .957.277 1.07.92h-2.2Zm3.632 2.184h.808v-5.461h-.808v5.461Zm1.653 0h.808v-5.461h-.808v5.461Zm3.418.098c1.1 0 1.975-.861 1.975-1.968a1.948 1.948 0 0 0-1.975-1.967 1.953 1.953 0 0 0-1.975 1.967c0 1.107.882 1.968 1.975 1.968Zm0-.786c-.659 0-1.167-.501-1.167-1.182 0-.681.508-1.182 1.167-1.182.658 0 1.167.501 1.167 1.182 0 .681-.509 1.182-1.167 1.182Zm5.125-3.89a2.683 2.683 0 0 0-2.723 2.708c0 1.571 1.227 2.708 2.858 2.708.509 0 .905-.067 1.25-.179v-.255c-.352.128-.756.195-1.25.195-1.496 0-2.596-1.047-2.596-2.469 0-1.406 1.1-2.469 2.461-2.469 1.332 0 2.357 1.003 2.357 2.32 0 .92-.337 1.301-.733 1.301-.344 0-.457-.277-.457-.606v-1.69H55.4v.224a.975.975 0 0 0-.718-.299c-.658 0-1.137.523-1.137 1.219 0 .688.479 1.212 1.137 1.212a.95.95 0 0 0 .77-.366c.128.396.464.613.936.613.613 0 1.152-.501 1.152-1.608 0-1.235-.95-2.559-2.619-2.559Zm-.097 3.292a.562.562 0 0 1-.584-.584c0-.359.255-.591.584-.591.322 0 .576.232.576.591a.56.56 0 0 1-.576.584Zm5.34-3.95h-1.931v5.236h.86v-1.795h1.07c.988 0 1.736-.756 1.736-1.721 0-.972-.748-1.72-1.736-1.72Zm0 2.633h-1.07v-1.825h1.07c.508 0 .874.381.874.912 0 .524-.366.913-.875.913Zm6.014 2.603-1.638-2.693 1.549-2.543h-.98l-1.063 1.743-1.062-1.743h-.973l1.549 2.543-1.646 2.693h.98l1.152-1.892 1.152 1.892h.98Zm3.944-5.236h-3.816v.823h1.481v4.413h.86v-4.413h1.475v-.823Zm1.583 5.334c.733 0 1.37-.382 1.684-.973l-.696-.396c-.18.344-.546.576-.995.576-.659 0-1.16-.502-1.16-1.175s.501-1.174 1.16-1.174c.449 0 .815.224.98.576l.695-.404c-.299-.584-.935-.965-1.668-.965-1.13 0-1.975.853-1.975 1.967 0 1.107.846 1.968 1.975 1.968Zm3.881 0c1.1 0 1.975-.861 1.975-1.968a1.948 1.948 0 0 0-1.975-1.967 1.953 1.953 0 0 0-1.975 1.967c0 1.107.883 1.968 1.975 1.968Zm0-.786c-.658 0-1.167-.501-1.167-1.182 0-.681.509-1.182 1.167-1.182s1.167.501 1.167 1.182c0 .681-.509 1.182-1.167 1.182Zm4.58-3.149c-.51 0-.913.187-1.16.576v-.479h-.808v3.74h.808v-2.004c0-.764.419-1.078.95-1.078.509 0 .838.3.838.868v2.214h.808v-2.296c0-.973-.599-1.541-1.436-1.541Zm4.3.875v-.778h-.928v-1.047l-.808.239v.808h-.688v.778h.688v1.795c0 .973.494 1.317 1.736 1.167v-.725c-.614.03-.928.037-.928-.442v-1.795h.927Zm1.483-.15v-.628h-.808v3.74h.808v-1.885c0-.838.621-1.085 1.152-1.047v-.875c-.471 0-.927.187-1.152.695Zm4.443-.628v.531c-.284-.389-.726-.628-1.31-.628-1.017 0-1.862.853-1.862 1.967 0 1.107.845 1.968 1.863 1.968.583 0 1.025-.24 1.309-.636v.538h.808v-3.74h-.808Zm-1.182 3.067c-.673 0-1.182-.501-1.182-1.197 0-.696.509-1.197 1.182-1.197.673 0 1.182.501 1.182 1.197 0 .696-.509 1.197-1.182 1.197Zm4.603.771c.734 0 1.37-.382 1.684-.973l-.696-.396c-.18.344-.546.576-.995.576-.658 0-1.16-.502-1.16-1.175s.502-1.174 1.16-1.174c.449 0 .816.224.98.576l.696-.404c-.3-.584-.935-.965-1.668-.965-1.13 0-1.975.853-1.975 1.967 0 1.107.845 1.968 1.975 1.968Zm4.261-3.06v-.778h-.927v-1.047l-.808.239v.808h-.688v.778h.688v1.795c0 .973.494 1.317 1.735 1.167v-.725c-.613.03-.927.037-.927-.442v-1.795h.927Zm1.044-1.339c.284 0 .516-.24.516-.516a.517.517 0 0 0-1.032 0c0 .276.231.516.516.516Zm-.404 4.301h.808v-3.74h-.808v3.74Zm3.62-3.837c-.509 0-.913.187-1.16.576v-.479h-.808v3.74h.808v-2.004c0-.764.419-1.078.95-1.078.509 0 .838.3.838.868v2.214h.808v-2.296c0-.973-.598-1.541-1.436-1.541Zm5.19.097v.554c-.284-.404-.726-.651-1.302-.651-1.055 0-1.885.86-1.885 1.93 0 1.07.83 1.93 1.885 1.93.576 0 1.018-.247 1.302-.651v.456c0 .651-.419 1.033-1.115 1.033-.651 0-.927-.255-1.092-.576l-.696.404c.315.598.95.905 1.773.905.98 0 1.923-.561 1.923-1.766v-3.568h-.793Zm-1.19 3.007c-.68 0-1.189-.501-1.189-1.174 0-.673.509-1.175 1.189-1.175.681 0 1.19.502 1.19 1.175s-.509 1.174-1.19 1.174Zm3.317.823a.56.56 0 1 0 0-1.122.556.556 0 0 0-.561.561.56.56 0 0 0 .561.561Zm2.793.008c.733 0 1.369-.382 1.684-.973l-.696-.396c-.18.344-.546.576-.995.576-.658 0-1.16-.502-1.16-1.175s.502-1.174 1.16-1.174c.449 0 .815.224.98.576l.696-.404c-.3-.584-.936-.965-1.669-.965-1.129 0-1.975.853-1.975 1.967 0 1.107.846 1.968 1.975 1.968Zm3.881 0c1.1 0 1.975-.861 1.975-1.968a1.948 1.948 0 0 0-1.975-1.967 1.953 1.953 0 0 0-1.975 1.967c0 1.107.883 1.968 1.975 1.968Zm0-.786c-.658 0-1.167-.501-1.167-1.182 0-.681.509-1.182 1.167-1.182s1.167.501 1.167 1.182c0 .681-.509 1.182-1.167 1.182Zm6.697-3.149c-.501 0-.898.202-1.145.591-.217-.374-.576-.591-1.062-.591-.464 0-.831.179-1.07.546v-.449h-.808v3.74h.808v-2.094c0-.681.374-.988.83-.988.442 0 .704.292.704.816v2.266h.808v-2.094c0-.681.336-.988.815-.988.441 0 .726.292.726.816v2.266h.808v-2.319c0-.935-.569-1.518-1.414-1.518Z" fill="#656B7D"/><path d="M11.768 221.743c.36-.232.599-.606.599-1.107 0-1.01-.793-1.504-1.661-1.504-.875 0-1.661.494-1.661 1.504 0 .501.24.875.591 1.107-.479.269-.77.725-.77 1.272 0 .972.748 1.548 1.84 1.548s1.833-.576 1.833-1.548c0-.554-.285-1.003-.77-1.272Zm-1.062-1.796c.434 0 .8.24.8.726 0 .464-.366.726-.8.726-.442 0-.8-.262-.8-.726 0-.486.358-.726.8-.726Zm0 3.801c-.569 0-.98-.285-.98-.816 0-.538.411-.815.98-.815.56 0 .972.277.972.815 0 .531-.411.816-.972.816Zm5.162-2.005c.36-.232.598-.606.598-1.107 0-1.01-.793-1.504-1.66-1.504-.876 0-1.661.494-1.661 1.504 0 .501.24.875.59 1.107-.478.269-.77.725-.77 1.272 0 .972.748 1.548 1.84 1.548 1.093 0 1.834-.576 1.834-1.548 0-.554-.285-1.003-.771-1.272Zm-1.062-1.796c.434 0 .8.24.8.726 0 .464-.366.726-.8.726-.442 0-.8-.262-.8-.726 0-.486.358-.726.8-.726Zm0 3.801c-.569 0-.98-.285-.98-.816 0-.538.411-.815.98-.815.56 0 .972.277.972.815 0 .531-.411.816-.972.816Zm5.162-2.005c.359-.232.598-.606.598-1.107 0-1.01-.793-1.504-1.66-1.504-.876 0-1.661.494-1.661 1.504 0 .501.24.875.59 1.107-.478.269-.77.725-.77 1.272 0 .972.748 1.548 1.84 1.548 1.093 0 1.833-.576 1.833-1.548 0-.554-.284-1.003-.77-1.272Zm-1.062-1.796c.434 0 .8.24.8.726 0 .464-.366.726-.8.726-.442 0-.8-.262-.8-.726 0-.486.358-.726.8-.726Zm0 3.801c-.569 0-.98-.285-.98-.816 0-.538.411-.815.98-.815.56 0 .972.277.972.815 0 .531-.411.816-.972.816Zm2.521-1.167h2.768v-.778h-2.768v.778Zm7.087-1.661c0-1.055-.764-1.788-1.848-1.788-1.085 0-1.856.733-1.856 1.788 0 1.055.771 1.788 1.856 1.788h.09l-1.198 1.758h.988l1.653-2.491c.202-.292.314-.651.314-1.055Zm-2.843 0c0-.599.426-.973.995-.973.568 0 .987.374.987.973 0 .598-.419.972-.987.972-.569 0-.995-.381-.995-.972Zm2.975-1.691v.823h2.393l-1.81 4.414h.905l1.84-4.489v-.748h-3.328Zm6.48 2.514c.359-.232.598-.606.598-1.107 0-1.01-.793-1.504-1.66-1.504-.876 0-1.661.494-1.661 1.504 0 .501.239.875.59 1.107-.478.269-.77.725-.77 1.272 0 .972.748 1.548 1.84 1.548 1.093 0 1.833-.576 1.833-1.548 0-.554-.284-1.003-.77-1.272Zm-1.063-1.796c.434 0 .8.24.8.726 0 .464-.366.726-.8.726-.441 0-.8-.262-.8-.726 0-.486.359-.726.8-.726Zm0 3.801c-.568 0-.98-.285-.98-.816 0-.538.412-.815.98-.815.561 0 .973.277.973.815 0 .531-.412.816-.973.816Zm2.522-1.167h2.768v-.778h-2.768v.778Zm5.695-1.212 1.062-1.407v-.733h-3.217v.808h2.192l-1.13 1.489.345.516h.194c.591 0 .973.314.973.838s-.382.845-.973.845c-.523 0-.875-.232-1.025-.673l-.733.426c.292.733.988 1.085 1.758 1.085.965 0 1.833-.583 1.833-1.683 0-.816-.561-1.339-1.28-1.511Zm5.228-.449c0-1.055-.763-1.788-1.848-1.788-1.084 0-1.855.733-1.855 1.788 0 1.055.77 1.788 1.855 1.788h.09l-1.197 1.758h.988l1.653-2.491c.202-.292.314-.651.314-1.055Zm-2.843 0c0-.599.427-.973.995-.973.569 0 .988.374.988.973 0 .598-.42.972-.988.972-.568 0-.995-.381-.995-.972Zm4.847.284h-.658l.09-1.167h2.124v-.808h-2.917l-.202 2.813h1.526c.568 0 .957.314.957.838s-.389.845-.972.845c-.546 0-.905-.247-1.04-.71l-.74.426c.276.756.987 1.122 1.78 1.122.965 0 1.833-.583 1.833-1.683 0-1.092-.83-1.676-1.78-1.676Zm3.968-.217h-.097l1.197-1.758h-.98l-1.66 2.491a1.831 1.831 0 0 0-.315 1.055c0 1.055.763 1.788 1.855 1.788 1.085 0 1.848-.733 1.848-1.788 0-1.055-.763-1.788-1.848-1.788Zm0 2.761c-.576 0-.995-.374-.995-.973 0-.598.42-.972.995-.972.569 0 .988.374.988.972 0 .591-.42.973-.988.973Z" fill="#35373D"/><path d="M11.057 207.909h-1.93v5.237h.86v-1.796h1.07c.988 0 1.736-.756 1.736-1.721 0-.972-.748-1.72-1.736-1.72Zm0 2.633h-1.07v-1.825h1.07c.51 0 .876.381.876.912 0 .524-.367.913-.876.913Zm5.494-2.633v2.147h-2.244v-2.147h-.86v5.237h.86v-2.267h2.244v2.267h.86v-5.237h-.86Zm4.267 5.334a2.692 2.692 0 0 0 2.716-2.716 2.692 2.692 0 0 0-2.716-2.715 2.696 2.696 0 0 0-2.715 2.715 2.697 2.697 0 0 0 2.715 2.716Zm0-.838c-1.047 0-1.855-.801-1.855-1.878s.808-1.878 1.855-1.878c1.048 0 1.856.801 1.856 1.878s-.808 1.878-1.856 1.878Zm6.55-4.496v3.553l-2.47-3.553h-.673v5.237h.86v-3.554l2.47 3.554h.672v-5.237h-.86Zm2.672 4.414v-1.414h2.095v-.816H30.04v-1.361h2.282v-.823H29.18v5.237h3.18v-.823h-2.32Z" fill="#8C92A4"/><path d="M118.425 223.029c0-.994-.763-1.279-1.474-1.548V220c.307.067.531.254.666.591l.725-.419c-.269-.614-.785-.943-1.391-1.025v-.666h-.486v.658c-.778.075-1.459.584-1.459 1.467 0 .957.733 1.279 1.459 1.548v1.556c-.487-.052-.793-.314-.958-.733l-.741.427c.262.68.868 1.099 1.699 1.152v.658h.486v-.666c.853-.105 1.474-.651 1.474-1.519Zm-2.559-2.423c0-.337.232-.561.599-.621v1.301c-.419-.194-.599-.366-.599-.68Zm1.085 3.097v-1.362c.381.172.613.344.613.696 0 .322-.202.583-.613.666Zm1.835.763h3.449v-.831h-2.17l1.182-1.182c.502-.508.891-1.054.891-1.705 0-1.04-.816-1.616-1.676-1.616-.696 0-1.354.344-1.691 1.062l.726.427c.202-.419.538-.651.972-.651.449 0 .808.284.808.808 0 .396-.291.778-.665 1.152l-1.826 1.863v.673Zm6.762-2.723c.359-.232.599-.606.599-1.107 0-1.01-.793-1.504-1.661-1.504-.875 0-1.661.494-1.661 1.504 0 .501.24.875.591 1.107-.479.269-.77.725-.77 1.272 0 .972.748 1.548 1.84 1.548s1.833-.576 1.833-1.548c0-.554-.284-1.003-.771-1.272Zm-1.062-1.796c.434 0 .8.24.8.726 0 .464-.366.726-.8.726-.441 0-.8-.262-.8-.726 0-.486.359-.726.8-.726Zm0 3.801c-.569 0-.98-.285-.98-.816 0-.538.411-.815.98-.815.561 0 .973.277.973.815 0 .531-.412.816-.973.816Zm3.591-.18h-.897l-.3 1.945h.674l.523-1.945Zm4.505-.845h-.599v-1.362h-.867v1.362h-1.639l1.803-3.494h-.935l-1.803 3.494v.8h2.574v.943h.867v-.943h.599v-.8Zm2.091-1.519h-.658l.09-1.167h2.124v-.808h-2.917l-.202 2.813h1.526c.569 0 .958.314.958.838s-.389.845-.973.845c-.546 0-.905-.247-1.04-.71l-.74.426c.276.756.987 1.122 1.78 1.122.965 0 1.833-.583 1.833-1.683 0-1.092-.831-1.676-1.781-1.676Zm5.59-.284c0-1.055-.763-1.788-1.848-1.788s-1.855.733-1.855 1.788c0 1.055.77 1.788 1.855 1.788h.09l-1.197 1.758h.987l1.654-2.491a1.83 1.83 0 0 0 .314-1.055Zm-2.843 0c0-.599.426-.973.995-.973s.987.374.987.973c0 .598-.418.972-.987.972s-.995-.381-.995-.972Zm2.849 3.636a.561.561 0 1 0 0-1.124.561.561 0 0 0 0 1.124Zm4.219-3.636c0-1.055-.763-1.788-1.847-1.788-1.085 0-1.856.733-1.856 1.788 0 1.055.771 1.788 1.856 1.788h.089l-1.197 1.758h.988l1.653-2.491a1.83 1.83 0 0 0 .314-1.055Zm-2.842 0c0-.599.426-.973.995-.973.568 0 .987.374.987.973 0 .598-.419.972-.987.972-.569 0-.995-.381-.995-.972Zm6.825 0c0-1.055-.763-1.788-1.847-1.788-1.085 0-1.856.733-1.856 1.788 0 1.055.771 1.788 1.856 1.788h.089l-1.197 1.758h.988l1.653-2.491a1.83 1.83 0 0 0 .314-1.055Zm-2.842 0c0-.599.426-.973.995-.973.568 0 .987.374.987.973 0 .598-.419.972-.987.972-.569 0-.995-.381-.995-.972Z" fill="#00834E"/><path d="M134.915 207.909h-1.931v5.237h.861v-1.796h1.07c.987 0 1.735-.756 1.735-1.721 0-.972-.748-1.72-1.735-1.72Zm0 2.633h-1.07v-1.825h1.07c.508 0 .875.381.875.912 0 .524-.367.913-.875.913Zm5.274 2.604h.928l-1.893-5.237h-1.033l-1.9 5.237h.935l.367-1.055h2.229l.367 1.055Zm-2.312-1.863.831-2.364.83 2.364h-1.661Zm3.709-3.374v5.237h.86v-5.237h-.86Zm3.871 0h-2.058v5.237h2.058c1.443 0 2.506-1.16 2.506-2.619 0-1.466-1.063-2.618-2.506-2.618Zm0 4.414h-1.197v-3.591h1.197c.995 0 1.675.755 1.675 1.795 0 1.033-.68 1.796-1.675 1.796Z" fill="#8C92A4"/><path d="M120.883 258.35c0-.995-.763-1.279-1.474-1.549v-1.481c.307.067.531.254.666.591l.725-.419c-.269-.613-.785-.943-1.391-1.025v-.666h-.486v.659c-.778.074-1.459.583-1.459 1.466 0 .958.733 1.279 1.459 1.549v1.556c-.487-.053-.793-.315-.958-.734l-.741.427c.262.681.868 1.1 1.699 1.152v.658h.486v-.666c.853-.104 1.474-.65 1.474-1.518Zm-2.559-2.424c0-.337.232-.561.599-.621v1.302c-.419-.195-.599-.367-.599-.681Zm1.085 3.097v-1.361c.381.172.613.344.613.695 0 .322-.202.584-.613.666Zm1.642-4.474v.823h2.394l-1.81 4.414h.905l1.84-4.488v-.749h-3.329Zm3.93 4.339h-.897l-.299 1.945h.673l.523-1.945Zm3.458-1.825a1.27 1.27 0 0 0 .598-1.107c0-1.01-.793-1.504-1.66-1.504-.876 0-1.661.494-1.661 1.504 0 .501.239.875.591 1.107-.479.269-.771.726-.771 1.272 0 .972.748 1.548 1.841 1.548 1.092 0 1.832-.576 1.832-1.548 0-.554-.284-1.003-.77-1.272Zm-1.062-1.795c.433 0 .8.239.8.725 0 .464-.367.726-.8.726-.442 0-.801-.262-.801-.726 0-.486.359-.725.801-.725Zm0 3.8c-.569 0-.98-.284-.98-.815 0-.539.411-.816.98-.816.561 0 .972.277.972.816 0 .531-.411.815-.972.815Zm5.887-2.828c0-1.055-.763-1.788-1.847-1.788-1.085 0-1.856.733-1.856 1.788 0 1.055.771 1.788 1.856 1.788h.089l-1.197 1.758h.988l1.653-2.491a1.83 1.83 0 0 0 .314-1.055Zm-2.842 0c0-.598.426-.972.995-.972.568 0 .987.374.987.972 0 .599-.419.973-.987.973-.569 0-.995-.382-.995-.973Zm7.001 1.803h-.598v-1.361h-.868v1.361h-1.639l1.803-3.494h-.935l-1.803 3.494v.801h2.574v.942h.868v-.942h.598v-.801Zm.992 1.833a.56.56 0 1 0 0-1.122.556.556 0 0 0-.561.561.56.56 0 0 0 .561.561Zm2.986.007c1.316 0 2.057-1.099 2.057-2.715 0-1.616-.741-2.716-2.057-2.716-1.317 0-2.058 1.1-2.058 2.716s.741 2.715 2.058 2.715Zm0-.837c-.771 0-1.197-.674-1.197-1.878 0-1.205.426-1.878 1.197-1.878.778 0 1.196.673 1.196 1.878 0 1.204-.418 1.878-1.196 1.878Zm4.618.837c1.317 0 2.057-1.099 2.057-2.715 0-1.616-.74-2.716-2.057-2.716s-2.057 1.1-2.057 2.716.74 2.715 2.057 2.715Zm0-.837c-.77 0-1.197-.674-1.197-1.878 0-1.205.427-1.878 1.197-1.878.778 0 1.197.673 1.197 1.878 0 1.204-.419 1.878-1.197 1.878Z" fill="#C20101"/><path d="M101.517 248.563a2.692 2.692 0 0 0 2.716-2.716 2.692 2.692 0 0 0-2.716-2.715 2.696 2.696 0 0 0-2.715 2.715 2.696 2.696 0 0 0 2.715 2.716Zm0-.838c-1.047 0-1.855-.8-1.855-1.878 0-1.077.808-1.877 1.855-1.877 1.048 0 1.856.8 1.856 1.877 0 1.078-.808 1.878-1.856 1.878Zm5.293.838c1.145 0 1.983-.703 1.983-1.833v-3.501h-.86v3.449c0 .613-.352 1.047-1.123 1.047-.77 0-1.122-.434-1.122-1.047v-3.449h-.86v3.501c0 1.13.83 1.833 1.982 1.833Zm6.283-5.334h-3.816v.823h1.482v4.414h.86v-4.414h1.474v-.823Zm2.139 5.334c1.093 0 1.856-.583 1.856-1.541 0-1.04-.876-1.309-1.743-1.586-.764-.239-1.055-.411-1.055-.815 0-.397.321-.651.823-.651.583 0 .912.314 1.099.733l.726-.419c-.329-.696-.965-1.152-1.825-1.152-.883 0-1.684.546-1.684 1.511 0 .988.793 1.287 1.609 1.534.778.239 1.189.396 1.189.86 0 .381-.292.688-.972.688-.711 0-1.115-.351-1.302-.883l-.741.434c.277.778.988 1.287 2.02 1.287Zm5.717-5.334h-3.815v.823h1.481v4.414h.86v-4.414h1.474v-.823Zm3.582 5.237h.927l-1.893-5.237h-1.032l-1.9 5.237h.935l.367-1.055h2.229l.367 1.055Zm-2.312-1.863.83-2.364.831 2.364h-1.661Zm6.851-3.374v3.554l-2.469-3.554h-.673v5.237h.86v-3.554l2.469 3.554h.673v-5.237h-.86Zm3.87 0h-2.058v5.237h2.058c1.444 0 2.506-1.16 2.506-2.619 0-1.466-1.062-2.618-2.506-2.618Zm0 4.414h-1.197v-3.591h1.197c.995 0 1.675.756 1.675 1.795 0 1.033-.68 1.796-1.675 1.796Zm3.197-4.414v5.237h.86v-5.237h-.86Zm4.955 0v3.554l-2.469-3.554h-.673v5.237h.86v-3.554l2.469 3.554h.673v-5.237h-.86Zm6.907 2.529h-2.618v.77h1.75c-.157.703-.74 1.197-1.69 1.197-1.175 0-1.938-.815-1.938-1.87 0-1.07.778-1.885 1.885-1.885.689 0 1.272.344 1.541.83l.741-.426c-.441-.741-1.287-1.242-2.282-1.242-1.571 0-2.745 1.212-2.745 2.715 0 1.504 1.159 2.716 2.79 2.716 1.534 0 2.566-1.017 2.566-2.446v-.359Z" fill="#8C92A4"/><path d="m10.077 253.644-1.376.486.21.734 1.054-.3v4.317h.86v-5.237h-.748Zm4.381 2.514c.36-.232.598-.606.598-1.107 0-1.01-.792-1.504-1.66-1.504-.876 0-1.661.494-1.661 1.504 0 .501.24.875.59 1.107-.478.269-.77.725-.77 1.272 0 .972.748 1.548 1.84 1.548 1.093 0 1.834-.576 1.834-1.548 0-.554-.285-1.003-.771-1.272Zm-1.062-1.796c.434 0 .8.24.8.726 0 .464-.366.726-.8.726-.442 0-.8-.262-.8-.726 0-.486.358-.726.8-.726Zm0 3.801c-.569 0-.98-.285-.98-.816 0-.538.411-.815.98-.815.56 0 .972.277.972.815 0 .531-.411.816-.972.816Zm6.282-1.025h-.598v-1.362h-.868v1.362h-1.638l1.803-3.494h-.935l-1.803 3.494v.8h2.573v.943h.868v-.943h.598v-.8Zm2.092-1.519h-.659l.09-1.167h2.125v-.808h-2.918l-.202 2.813h1.526c.569 0 .958.314.958.838s-.389.845-.973.845c-.546 0-.905-.247-1.04-.71l-.74.426c.277.756.987 1.122 1.78 1.122.966 0 1.833-.583 1.833-1.683 0-1.092-.83-1.676-1.78-1.676Zm5.97 3.359c1.091 0 1.854-.583 1.854-1.541 0-1.04-.875-1.309-1.743-1.586-.763-.239-1.054-.411-1.054-.815 0-.397.321-.651.822-.651.584 0 .913.314 1.1.733l.726-.419c-.33-.696-.965-1.152-1.826-1.152-.882 0-1.683.546-1.683 1.511 0 .988.793 1.287 1.609 1.534.778.239 1.189.396 1.189.86 0 .382-.292.688-.973.688-.71 0-1.114-.351-1.301-.883l-.74.434c.276.778.987 1.287 2.02 1.287Zm6.542-3.935c-.502 0-.898.202-1.145.591-.217-.374-.576-.591-1.062-.591-.464 0-.83.18-1.07.546v-.449h-.808v3.741h.808v-2.095c0-.681.374-.987.83-.987.442 0 .703.291.703.815v2.267h.809v-2.095c0-.681.336-.987.815-.987.441 0 .726.291.726.815v2.267h.808v-2.319c0-.935-.57-1.519-1.414-1.519Zm2.589-.464a.522.522 0 0 0 .516-.516.517.517 0 0 0-1.033 0c0 .277.232.516.517.516Zm-.404 4.302h.808v-3.741h-.808v3.741Zm3.74-2.963v-.778h-.928v-1.047l-.808.239v.808h-.688v.778h.688v1.796c0 .972.494 1.316 1.735 1.167v-.726c-.613.03-.927.038-.927-.441v-1.796h.927Zm2.606-.875c-.509 0-.913.187-1.16.576v-1.975h-.807v5.237h.808v-2.005c0-.763.418-1.077.95-1.077.508 0 .837.299.837.867v2.215h.808v-2.297c0-.972-.598-1.541-1.436-1.541Zm4.173-.718v-.778c-1.122-.075-1.69.509-1.69 1.519v.074h-.57v.778h.57v2.963h.807v-2.963h.883v-.778h-.883v-.074c0-.576.314-.793.883-.741Zm.783.254a.522.522 0 0 0 .516-.516.517.517 0 0 0-1.032 0c0 .277.232.516.516.516Zm-.404 4.302h.808v-3.741h-.808v3.741Zm2.289-1.526h2.977c.015-.105.03-.225.03-.337 0-1.077-.763-1.975-1.878-1.975-1.174 0-1.975.86-1.975 1.968 0 1.122.8 1.967 2.035 1.967.733 0 1.294-.307 1.638-.815l-.665-.389c-.18.262-.517.463-.965.463-.599 0-1.07-.299-1.197-.882Zm-.008-.659c.112-.561.524-.92 1.13-.92.486 0 .957.277 1.07.92h-2.2Zm3.632 2.185h.808v-5.461h-.808v5.461Zm4.615-5.237v2.028c-.284-.389-.725-.629-1.309-.629-1.017 0-1.863.853-1.863 1.968 0 1.107.846 1.967 1.863 1.967.584 0 1.025-.239 1.31-.636v.539h.807v-5.237h-.808Zm-1.182 4.564c-.673 0-1.182-.502-1.182-1.197 0-.696.51-1.197 1.182-1.197.674 0 1.182.501 1.182 1.197 0 .695-.508 1.197-1.182 1.197Zm5.528-.15v-4.414h-.86v5.237h2.992v-.823h-2.132Zm5.47-2.918v.532c-.284-.389-.725-.629-1.309-.629-1.017 0-1.863.853-1.863 1.968 0 1.107.846 1.967 1.863 1.967.584 0 1.025-.239 1.31-.636v.539h.807v-3.741h-.808Zm-1.182 3.068c-.673 0-1.182-.502-1.182-1.197 0-.696.509-1.197 1.182-1.197.674 0 1.182.501 1.182 1.197 0 .695-.508 1.197-1.182 1.197Zm4.806-3.165c-.509 0-.913.187-1.16.576v-.479h-.808v3.741h.808v-2.005c0-.763.42-1.077.95-1.077.51 0 .838.299.838.867v2.215h.808v-2.297c0-.972-.598-1.541-1.436-1.541Zm2.849 2.312h2.977c.015-.105.03-.225.03-.337 0-1.077-.763-1.975-1.878-1.975-1.174 0-1.975.86-1.975 1.968 0 1.122.8 1.967 2.035 1.967.733 0 1.294-.307 1.638-.815l-.665-.389c-.18.262-.517.463-.965.463-.599 0-1.07-.299-1.198-.882Zm-.008-.659c.112-.561.524-.92 1.13-.92.486 0 .957.277 1.07.92h-2.2ZM9.988 267.058v-4.414h-.86v5.237h2.992v-.823H9.988Zm4.273.92c1.1 0 1.975-.86 1.975-1.967a1.948 1.948 0 0 0-1.975-1.968 1.953 1.953 0 0 0-1.975 1.968c0 1.107.883 1.967 1.975 1.967Zm0-.785c-.658 0-1.167-.502-1.167-1.182 0-.681.509-1.182 1.167-1.182s1.167.501 1.167 1.182c0 .68-.509 1.182-1.167 1.182Zm3.265-2.02c0-.27.254-.397.546-.397.306 0 .568.135.703.427l.68-.382c-.261-.494-.77-.778-1.383-.778-.763 0-1.37.442-1.37 1.145 0 1.339 2.013.965 2.013 1.631 0 .299-.277.418-.636.418-.411 0-.71-.201-.83-.538l-.696.404c.24.538.778.875 1.526.875.808 0 1.459-.404 1.459-1.152 0-1.384-2.012-.972-2.012-1.653Zm7.87 2.708h.927l-1.893-5.237h-1.032l-1.9 5.237h.935l.366-1.055h2.23l.366 1.055Zm-2.313-1.863.83-2.364.831 2.364h-1.66Zm5.624-1.975c-.508 0-.912.187-1.16.576v-.479h-.807v3.741h.808v-2.005c0-.763.419-1.077.95-1.077.509 0 .838.299.838.867v2.215h.808v-2.297c0-.972-.599-1.541-1.437-1.541Zm5.19.097v.554c-.284-.404-.725-.651-1.301-.651-1.055 0-1.885.86-1.885 1.93 0 1.07.83 1.93 1.885 1.93.576 0 1.017-.247 1.302-.651v.457c0 .651-.42 1.032-1.115 1.032-.65 0-.928-.254-1.092-.576l-.696.404c.314.599.95.905 1.773.905.98 0 1.923-.561 1.923-1.765v-3.569h-.793Zm-1.189 3.008c-.68 0-1.19-.501-1.19-1.175 0-.673.51-1.174 1.19-1.174.68 0 1.19.501 1.19 1.174 0 .674-.51 1.175-1.19 1.175Zm3.467-.793h2.977c.015-.105.03-.225.03-.337 0-1.077-.763-1.975-1.878-1.975-1.174 0-1.975.86-1.975 1.968 0 1.122.8 1.967 2.035 1.967.733 0 1.294-.307 1.639-.815l-.666-.389c-.18.262-.517.463-.965.463-.599 0-1.07-.299-1.197-.882Zm-.008-.659c.112-.561.524-.92 1.13-.92.486 0 .957.277 1.07.92h-2.2Zm3.633 2.185h.807v-5.461H39.8v5.461Zm2.288-1.526h2.977c.015-.105.03-.225.03-.337 0-1.077-.763-1.975-1.877-1.975-1.175 0-1.975.86-1.975 1.968 0 1.122.8 1.967 2.034 1.967.733 0 1.295-.307 1.639-.815l-.666-.389c-.18.262-.516.463-.965.463-.599 0-1.07-.299-1.197-.882Zm-.008-.659c.113-.561.524-.92 1.13-.92.486 0 .958.277 1.07.92h-2.2Zm4.212-.523c0-.27.255-.397.546-.397.307 0 .569.135.703.427l.681-.382c-.261-.494-.77-.778-1.384-.778-.763 0-1.369.442-1.369 1.145 0 1.339 2.013.965 2.013 1.631 0 .299-.277.418-.636.418-.412 0-.71-.201-.83-.538l-.696.404c.24.538.778.875 1.526.875.808 0 1.459-.404 1.459-1.152 0-1.384-2.013-.972-2.013-1.653Zm3.678 1.81h-.897l-.3 1.945h.674l.523-1.945Zm5.07.995c.965 0 1.818-.494 2.252-1.257l-.748-.426c-.27.516-.846.845-1.504.845-1.13 0-1.878-.8-1.878-1.877 0-1.078.748-1.878 1.878-1.878.658 0 1.227.329 1.504.845l.748-.434c-.442-.763-1.295-1.249-2.252-1.249-1.594 0-2.738 1.197-2.738 2.716 0 1.518 1.144 2.715 2.738 2.715Zm6.248-.097h.927l-1.892-5.237H59.29l-1.9 5.237h.935l.367-1.055h2.229l.367 1.055Zm-2.312-1.863.83-2.364.83 2.364h-1.66Zm8.852-1.683c0-1.055-.763-1.788-1.848-1.788s-1.855.733-1.855 1.788c0 1.055.77 1.788 1.855 1.788h.09l-1.197 1.758h.987l1.654-2.491c.202-.292.314-.651.314-1.055Zm-2.843 0c0-.599.427-.973.995-.973.569 0 .988.374.988.973 0 .598-.42.972-.988.972-.568 0-.995-.381-.995-.972Zm2.975-1.691v.823h2.394l-1.81 4.414h.905l1.84-4.489v-.748H67.96Zm5.205 1.758h-.098l1.197-1.758h-.98l-1.66 2.491a1.831 1.831 0 0 0-.315 1.055c0 1.055.763 1.788 1.856 1.788 1.084 0 1.847-.733 1.847-1.788 0-1.055-.763-1.788-1.847-1.788Zm0 2.761c-.577 0-.995-.374-.995-.973 0-.598.418-.972.995-.972.568 0 .987.374.987.972 0 .591-.419.973-.987.973Zm3.924-2.544h-.658l.09-1.167h2.124v-.808h-2.917l-.202 2.813h1.526c.569 0 .958.314.958.838s-.39.845-.973.845c-.546 0-.905-.247-1.04-.71l-.74.426c.276.756.987 1.122 1.78 1.122.965 0 1.833-.583 1.833-1.683 0-1.092-.83-1.676-1.78-1.676Zm5.09.539c.36-.232.6-.606.6-1.107 0-1.01-.794-1.504-1.662-1.504-.875 0-1.66.494-1.66 1.504 0 .501.239.875.59 1.107-.478.269-.77.725-.77 1.272 0 .972.748 1.548 1.84 1.548 1.093 0 1.833-.576 1.833-1.548 0-.554-.284-1.003-.77-1.272Zm-1.062-1.796c.434 0 .8.24.8.726 0 .464-.366.726-.8.726-.441 0-.8-.262-.8-.726 0-.486.359-.726.8-.726Zm0 3.801c-.568 0-.98-.285-.98-.816 0-.538.412-.815.98-.815.561 0 .973.277.973.815 0 .531-.412.816-.973.816Z" fill="#35373D"/><path d="M12.539 248.466h.927l-1.892-5.237H10.54l-1.9 5.237h.935l.367-1.055h2.23l.366 1.055Zm-2.312-1.863.83-2.364.83 2.364h-1.66Zm5.766-3.374h-2.057v5.237h2.057c1.444 0 2.506-1.16 2.506-2.619 0-1.466-1.062-2.618-2.506-2.618Zm0 4.414h-1.197v-3.591h1.197c.995 0 1.676.756 1.676 1.795 0 1.033-.68 1.796-1.676 1.796Zm5.254-4.414H19.19v5.237h2.057c1.444 0 2.506-1.16 2.506-2.619 0-1.466-1.062-2.618-2.506-2.618Zm0 4.414H20.05v-3.591h1.197c.995 0 1.676.756 1.676 1.795 0 1.033-.68 1.796-1.676 1.796Zm6.182.823h.943l-1.19-2.035a1.651 1.651 0 0 0 1.04-1.519c0-.935-.748-1.683-1.683-1.683h-2.095v5.237h.86v-1.908h1.018l1.107 1.908Zm-2.124-4.429h1.234c.456 0 .823.382.823.875 0 .487-.367.876-.823.876h-1.234v-1.751Zm4.494 3.606v-1.414h2.095v-.815h-2.095v-1.362h2.282v-.823h-3.142v5.237h3.18v-.823h-2.32Zm4.756.92c1.092 0 1.855-.583 1.855-1.541 0-1.04-.875-1.309-1.743-1.586-.763-.239-1.054-.411-1.054-.815 0-.397.321-.651.822-.651.584 0 .913.314 1.1.733l.726-.419c-.33-.696-.965-1.152-1.826-1.152-.882 0-1.683.546-1.683 1.511 0 .988.793 1.287 1.609 1.534.778.239 1.19.396 1.19.86 0 .381-.293.688-.973.688-.711 0-1.115-.351-1.302-.883l-.74.434c.276.778.987 1.287 2.02 1.287Zm4.078 0c1.092 0 1.855-.583 1.855-1.541 0-1.04-.875-1.309-1.743-1.586-.763-.239-1.054-.411-1.054-.815 0-.397.321-.651.822-.651.584 0 .913.314 1.1.733l.726-.419c-.33-.696-.965-1.152-1.825-1.152-.883 0-1.684.546-1.684 1.511 0 .988.793 1.287 1.609 1.534.778.239 1.19.396 1.19.86 0 .381-.293.688-.973.688-.711 0-1.115-.351-1.302-.883l-.74.434c.276.778.987 1.287 2.02 1.287Z" fill="#8C92A4"/><defs><clipPath id="a"><path fill="#fff" transform="translate(114.018 13.038)" d="M0 0h29.96v35.773H0z"/></clipPath><clipPath id="b"><path fill="#fff" transform="translate(65.142 102.873)" d="M0 0h29.106v37.557H0z"/></clipPath></defs></svg>