<svg fill="none" xmlns="http://www.w3.org/2000/svg" viewBox="0 0 301 326"><g clip-path="url(#a)"><rect x="82.957" width="228.227" height="268.656" rx="1.304" transform="rotate(17.986 82.957 0)" fill="#fff"/><rect x="82.848" y="38.357" width="78.249" height="27.387" rx="2.608" transform="rotate(17.986 82.848 38.357)" fill="#F5F5FA"/><rect x="72.377" y="70.608" width="78.249" height="27.387" rx="2.608" transform="rotate(17.986 72.377 70.608)" fill="#F5F5FA"/><rect x="58.685" y="112.782" width="202.144" height="27.387" rx="2.608" transform="rotate(17.986 58.685 112.782)" fill="#F5F5FA"/><rect x="49.454" y="145.435" width="202.144" height="27.387" rx="2.608" transform="rotate(17.986 49.454 145.435)" fill="#F5F5FA"/><rect x="37.372" y="182.649" width="76.945" height="59.991" rx="2.608" transform="rotate(17.986 37.372 182.649)" fill="#F5F5FA"/><path d="M90.008 16.579 86.566 27.18l2.09.68 3.442-10.603-2.09-.678Zm7.068 5.409c-1.014-.33-1.925-.207-2.6.327l.275-.848-1.954-.634-2.458 7.572 1.953.634 1.328-4.089c.428-1.317 1.321-1.647 2.276-1.337.878.285 1.327 1.017.992 2.047l-1.43 4.407 1.953.634 1.51-4.65c.654-2.013-.24-3.542-1.845-4.063Zm9.122 3.195-3.568 4.701-.112-5.895-2.15-.699.419 8.507 2.226.723 5.336-6.638-2.151-.699Zm3.685 9.802c2.227.723 4.579-.439 5.312-2.696.732-2.256-.489-4.578-2.716-5.3-2.226-.724-4.563.443-5.296 2.7-.733 2.256.474 4.573 2.7 5.296Zm.62-1.908c-1.151-.374-1.765-1.527-1.366-2.754.398-1.227 1.572-1.8 2.723-1.427 1.166.379 1.779 1.532 1.381 2.76-.398 1.226-1.572 1.8-2.738 1.42Zm8.37-4.783a1.275 1.275 0 0 0 1.601-.803 1.288 1.288 0 0 0-.819-1.605c-.651-.212-1.378.172-1.59.823a1.272 1.272 0 0 0 .808 1.585Zm-3.722 8.167 1.953.634 2.459-7.573-1.954-.634-2.458 7.573Zm7.088 2.535c1.484.482 3.027.112 4.062-.858l-1.382-1.52c-.504.523-1.278.69-2.066.435-1.166-.379-1.749-1.522-1.36-2.719.393-1.212 1.536-1.795 2.703-1.416.772.25 1.295.856 1.397 1.575l2-.438c-.242-1.368-1.274-2.574-2.758-3.055-2.302-.748-4.564.443-5.296 2.7-.733 2.256.398 4.549 2.7 5.296Zm6.837-1.313 5.71 1.854c.129-.243.242-.49.336-.778.723-2.227-.292-4.515-2.534-5.242-2.378-.773-4.564.443-5.296 2.7-.733 2.256.307 4.52 2.852 5.345 1.453.472 2.781.25 3.827-.548l-1.28-1.42c-.476.33-1.185.452-1.942.206-1.03-.334-1.725-1.029-1.673-2.117Zm.461-1.524c.542-.896 1.436-1.225 2.481-.886.818.266 1.493.97 1.381 2.14l-3.862-1.254ZM224.932 153.5c.451-1.389-.535-2.104-1.322-2.755l.538-1.657c.319.202.49.521.519.969l1.371-.301c-.104-.966-.66-1.651-1.451-2.017l.286-.884-.665-.215-.28.863c-1.074-.239-2.226.133-2.625 1.363-.429 1.32.448 2.098 1.255 2.755.01.004.017.017.027.02l-.558 1.717c-.52-.257-.767-.677-.808-1.261l-1.403.301c.048 1.036.688 1.869 1.773 2.309l-.28.864.665.215.283-.873c1.197.235 2.285-.212 2.675-1.413Zm-2.273-4.182c.109-.338.412-.525.834-.476l-.451 1.39c-.382-.377-.477-.627-.383-.914Zm.04 4.236.464-1.429c.345.32.509.593.396.94-.1.308-.382.534-.86.489Zm5.849-4.409-2.036.052-.042 1.281 1.429.058-1.785 5.498 1.369.444 2.256-6.946-1.191-.387Zm3.67 3.989-.715-.232.496-1.221 2.669.866.416-1.28-3.94-1.279-1.531 3.77 2.104.683c.675.219.946.735.765 1.291-.183.565-.703.814-1.417.582-.695-.226-.985-.649-.98-1.24l-1.393.305c.068 1.141.856 1.923 1.938 2.274 1.31.426 2.739.012 3.222-1.477.483-1.488-.364-2.63-1.634-3.042Zm4.058 6.352c1.776.577 3.255-.566 3.951-2.71.696-2.143.17-3.937-1.606-4.514-1.766-.574-3.255.567-3.951 2.71-.696 2.143-.161 3.941 1.606 4.514Zm.435-1.34c-.933-.302-1.149-1.261-.672-2.729.477-1.469 1.217-2.128 2.15-1.825.933.302 1.155 1.274.678 2.743-.476 1.468-1.224 2.114-2.156 1.811Zm3.533 2.617a.886.886 0 1 0 .547-1.687.887.887 0 1 0-.547 1.687Zm3.958 1.296c1.776.577 3.255-.566 3.951-2.71.696-2.143.171-3.937-1.606-4.514-1.766-.573-3.255.567-3.951 2.71-.696 2.144-.16 3.941 1.606 4.514Zm.435-1.339c-.933-.303-1.148-1.261-.671-2.73.476-1.469 1.217-2.128 2.15-1.825.932.303 1.155 1.274.678 2.743-.477 1.469-1.224 2.115-2.157 1.812Zm5.626 3.307c1.777.577 3.256-.566 3.951-2.71.696-2.143.171-3.937-1.605-4.514-1.767-.573-3.256.567-3.952 2.71-.695 2.144-.16 3.941 1.606 4.514Zm.435-1.339c-.933-.303-1.148-1.262-.671-2.73.477-1.469 1.217-2.128 2.15-1.825.933.303 1.155 1.274.678 2.743-.477 1.468-1.224 2.114-2.157 1.812ZM182.653 278.26c.451-1.389-.534-2.104-1.321-2.755l.538-1.657c.318.202.489.521.519.969l1.37-.301c-.103-.966-.66-1.651-1.451-2.017l.287-.884-.665-.215-.28.863c-1.075-.239-2.226.133-2.626 1.363-.428 1.32.449 2.098 1.256 2.755.01.004.016.017.026.02l-.557 1.717c-.52-.257-.768-.677-.808-1.261l-1.404.301c.048 1.036.688 1.869 1.774 2.309l-.281.864.665.215.284-.873c1.196.235 2.285-.212 2.674-1.413Zm-2.273-4.182c.11-.338.412-.525.835-.475l-.451 1.389c-.383-.377-.477-.627-.384-.914Zm.04 4.236.464-1.429c.346.32.51.593.397.94-.1.308-.382.534-.861.489Zm1.927 1.996 4.644 1.508.429-1.32-2.61-.847 1.801-.918c.867-.442 1.589-1.009 1.862-1.852.451-1.39-.392-2.541-1.583-2.928-.943-.306-2-.123-2.769.725l.932 1.048c.389-.422.889-.611 1.425-.437.526.171.79.641.61 1.197-.152.466-.647.81-1.245 1.131l-3.164 1.671-.332 1.022Zm8.901-1.991-.715-.232.495-1.222 2.67.867.415-1.28-3.939-1.279-1.531 3.77 2.104.683c.674.219.946.735.765 1.291-.183.565-.703.813-1.417.581-.695-.225-.985-.648-.98-1.239l-1.393.304c.068 1.142.856 1.924 1.938 2.275 1.31.425 2.738.012 3.222-1.477.483-1.488-.364-2.63-1.634-3.042Zm4.057 6.352c1.777.577 3.256-.567 3.952-2.71.695-2.144.17-3.938-1.606-4.514-1.767-.574-3.256.566-3.951 2.71-.696 2.143-.161 3.94 1.605 4.514Zm.435-1.34c-.932-.303-1.148-1.261-.671-2.73.477-1.468 1.217-2.127 2.15-1.825.933.303 1.155 1.275.678 2.743-.477 1.469-1.224 2.115-2.157 1.812Zm3.533 2.617a.886.886 0 1 0 .55-1.685.886.886 0 0 0-.55 1.685Zm3.959 1.296c1.776.577 3.255-.566 3.951-2.71.696-2.143.17-3.937-1.606-4.514-1.766-.573-3.255.567-3.951 2.71-.696 2.143-.161 3.941 1.606 4.514Zm.435-1.339c-.933-.303-1.148-1.262-.672-2.73.477-1.469 1.218-2.128 2.15-1.825.933.303 1.155 1.274.678 2.743-.476 1.468-1.224 2.114-2.156 1.812Zm5.626 3.307c1.776.577 3.255-.567 3.951-2.71.696-2.144.171-3.938-1.606-4.514-1.766-.574-3.255.566-3.951 2.71-.696 2.143-.16 3.941 1.606 4.514Zm.435-1.34c-.933-.302-1.148-1.261-.671-2.73.476-1.468 1.217-2.127 2.15-1.824.932.302 1.155 1.274.678 2.743-.477 1.468-1.224 2.114-2.157 1.811Z" fill="#35373D"/></g><g clip-path="url(#b)"><rect x="39.753" y="12.086" width="228.227" height="268.656" rx="1.304" transform="rotate(5.715 39.753 12.086)" fill="#FCFCFC"/><rect x="47.799" y="49.591" width="78.249" height="27.387" rx="2.608" transform="rotate(5.715 47.799 49.59)" fill="#F5F5FA"/><rect x="44.422" y="83.33" width="78.249" height="27.387" rx="2.608" transform="rotate(5.715 44.422 83.33)" fill="#F5F5FA"/><rect x="40.007" y="127.451" width="202.144" height="27.387" rx="2.608" transform="rotate(5.715 40.007 127.451)" fill="#F5F5FA"/><rect x="37.926" y="161.319" width="202.144" height="27.387" rx="2.608" transform="rotate(5.715 37.926 161.319)" fill="#F5F5FA"/><rect x="34.029" y="200.251" width="76.945" height="59.991" rx="2.608" transform="rotate(5.715 34.03 200.251)" fill="#F5F5FA"/><path d="m50.167 26.788-1.11 11.091 2.186.219 1.11-11.091-2.186-.219Zm8.056 3.783c-1.062-.106-1.925.207-2.472.873l.089-.887-2.044-.205-.793 7.922 2.044.205.428-4.278c.138-1.379.942-1.89 1.94-1.79.919.091 1.513.71 1.405 1.788l-.461 4.611 2.044.205.486-4.865c.211-2.107-.986-3.411-2.666-3.579Zm9.593 1.184-2.488 5.352-1.362-5.737-2.25-.225 2.218 8.223 2.329.233 3.803-7.62-2.25-.226ZM73.5 40.55c2.329.233 4.38-1.401 4.617-3.762.236-2.361-1.45-4.37-3.78-4.603-2.329-.233-4.365 1.403-4.601 3.764-.237 2.36 1.435 4.368 3.764 4.601Zm.2-1.996c-1.204-.12-2.049-1.117-1.92-2.4.128-1.284 1.153-2.093 2.357-1.973 1.22.122 2.065 1.119 1.936 2.402-.128 1.283-1.153 2.093-2.373 1.971Zm7.162-6.452a1.274 1.274 0 0 0 1.393-1.125 1.288 1.288 0 0 0-1.14-1.395c-.682-.068-1.31.461-1.379 1.143a1.271 1.271 0 0 0 1.126 1.377Zm-1.901 8.77 2.043.205.793-7.922-2.044-.204-.793 7.922Zm7.465.972c1.553.155 2.982-.534 3.787-1.701L88.54 38.95c-.382.618-1.103.946-1.927.863-1.22-.122-2.033-1.115-1.907-2.367.126-1.267 1.12-2.08 2.34-1.958.808.08 1.448.56 1.7 1.242l1.862-.854c-.528-1.285-1.792-2.243-3.345-2.399-2.408-.24-4.365 1.404-4.601 3.765-.237 2.36 1.355 4.36 3.764 4.601Zm6.401-2.736 5.974.598c.074-.265.133-.53.163-.832.233-2.33-1.245-4.35-3.59-4.584-2.488-.249-4.365 1.404-4.602 3.764-.236 2.361 1.261 4.351 3.923 4.618 1.521.152 2.771-.347 3.624-1.35l-1.553-1.116c-.394.425-1.061.694-1.854.615-1.077-.108-1.904-.639-2.085-1.713Zm.127-1.587c.34-.99 1.143-1.503 2.236-1.393.856.085 1.665.63 1.805 1.797l-4.04-.404ZM211.109 131.905c.145-1.453-.97-1.942-1.877-2.411l.173-1.733c.354.129.589.405.714.836l1.274-.585c-.306-.922-.995-1.473-1.846-1.663l.092-.924-.695-.07-.091.903c-1.1-.005-2.147.603-2.276 1.891-.138 1.38.885 1.955 1.813 2.425.01.001.02.012.03.013l-.18 1.796c-.562-.14-.894-.498-1.058-1.06l-1.307.593c.267 1.002 1.07 1.68 2.224 1.879l-.09.903.695.07.092-.914c1.218-.024 2.187-.693 2.313-1.949Zm-3.11-3.604c.035-.353.29-.6.714-.641l-.146 1.453c-.453-.286-.598-.511-.568-.812Zm.939 4.131.149-1.495c.406.24.624.472.588.835-.032.322-.26.603-.737.66Zm4.778-5.551-1.977.484.23 1.26 1.409-.247-.576 5.752 1.433.143.727-7.267-1.246-.125Zm4.434 3.118-.747-.075.224-1.299 2.793.28.134-1.339-4.121-.413-.695 4.009 2.201.221c.705.07 1.08.517 1.022 1.098-.059.592-.514.945-1.261.87-.727-.073-1.101-.425-1.221-1.003l-1.297.594c.309 1.1 1.246 1.697 2.377 1.811 1.371.137 2.679-.571 2.835-2.128.156-1.558-.915-2.493-2.244-2.626Zm5.315 5.345c1.859.186 3.061-1.246 3.285-3.488.225-2.243-.67-3.884-2.528-4.07-1.848-.185-3.061 1.245-3.285 3.488-.225 2.242.681 3.885 2.528 4.07Zm.141-1.402c-.976-.098-1.39-.988-1.236-2.525.153-1.536.737-2.338 1.713-2.24.975.098 1.399 1 1.245 2.536-.154 1.537-.746 2.327-1.722 2.229Zm4.008 1.806a.886.886 0 1 0 .178-1.763.886.886 0 0 0-.178 1.763Zm4.144.425c1.858.186 3.06-1.245 3.285-3.487.224-2.243-.671-3.884-2.529-4.07-1.848-.185-3.061 1.245-3.285 3.488-.224 2.242.681 3.885 2.529 4.069Zm.14-1.401c-.976-.098-1.39-.988-1.236-2.525.153-1.536.737-2.338 1.713-2.24.976.098 1.399 1 1.245 2.536-.153 1.537-.746 2.327-1.722 2.229Zm6.201 2.036c1.858.186 3.06-1.245 3.285-3.488.224-2.242-.671-3.884-2.529-4.07-1.848-.184-3.061 1.246-3.285 3.488-.224 2.243.681 3.885 2.529 4.07Zm.14-1.401c-.976-.098-1.39-.989-1.236-2.525.153-1.537.737-2.338 1.713-2.24.976.097 1.399.999 1.245 2.536-.153 1.536-.746 2.326-1.722 2.229ZM196.312 262.801c.146-1.454-.969-1.943-1.877-2.411l.174-1.734c.354.13.588.405.713.837l1.275-.585c-.306-.922-.996-1.473-1.847-1.664l.093-.923-.696-.07-.09.903c-1.101-.005-2.147.603-2.276 1.89-.138 1.381.884 1.955 1.812 2.426.011.001.02.012.03.013l-.179 1.796c-.563-.14-.894-.498-1.058-1.06l-1.307.593c.267 1.002 1.069 1.68 2.223 1.879l-.09.903.696.07.091-.914c1.219-.025 2.187-.693 2.313-1.949Zm-3.11-3.604c.035-.353.291-.6.714-.641l-.145 1.453c-.454-.287-.599-.511-.569-.812Zm.939 4.131.15-1.495c.406.24.624.471.587.835-.032.322-.259.603-.737.66Zm2.308 1.542 4.858.486.138-1.381-2.73-.273 1.564-1.28c.754-.617 1.339-1.324 1.427-2.206.145-1.453-.924-2.399-2.169-2.524-.987-.099-1.981.305-2.552 1.296l1.133.827c.291-.495.739-.786 1.3-.73.55.055.908.458.85 1.039-.049.488-.46.93-.976 1.371l-2.736 2.305-.107 1.07Zm8.274-3.838-.748-.075.224-1.299 2.793.28.134-1.34-4.121-.412-.695 4.009 2.201.22c.706.071 1.08.517 1.022 1.099-.059.592-.514.945-1.261.87-.727-.073-1.101-.425-1.221-1.003l-1.297.593c.31 1.101 1.246 1.698 2.378 1.811 1.37.137 2.678-.571 2.834-2.128.156-1.557-.915-2.492-2.243-2.625Zm5.315 5.344c1.858.186 3.06-1.245 3.285-3.488.224-2.242-.671-3.883-2.529-4.069-1.848-.185-3.061 1.245-3.285 3.488-.224 2.242.681 3.884 2.529 4.069Zm.14-1.401c-.976-.098-1.39-.989-1.236-2.525.153-1.537.737-2.338 1.713-2.24.976.097 1.399 1 1.245 2.536-.153 1.536-.746 2.326-1.722 2.229Zm4.008 1.806a.886.886 0 1 0 .178-1.763.886.886 0 0 0-.178 1.763Zm4.144.425c1.858.186 3.06-1.245 3.285-3.488.224-2.242-.671-3.884-2.529-4.069-1.848-.185-3.06 1.245-3.285 3.487-.224 2.243.681 3.885 2.529 4.07Zm.14-1.401c-.976-.098-1.39-.989-1.236-2.525.154-1.537.737-2.338 1.713-2.24.976.097 1.399.999 1.246 2.536-.154 1.536-.747 2.326-1.723 2.229Zm6.201 2.036c1.858.186 3.06-1.246 3.285-3.488.224-2.243-.671-3.884-2.529-4.07-1.848-.185-3.06 1.246-3.285 3.488-.224 2.242.681 3.885 2.529 4.07Zm.14-1.402c-.976-.097-1.39-.988-1.236-2.525.154-1.536.737-2.337 1.713-2.24.976.098 1.399 1 1.246 2.537-.154 1.536-.747 2.326-1.723 2.228Z" fill="#35373D"/></g><rect y="17.266" width="228.227" height="268.656" rx="1.304" fill="#fff"/><rect x="11.74" y="53.782" width="78.249" height="27.387" rx="2.608" fill="#F5F5FA"/><rect x="11.74" y="87.69" width="78.249" height="27.387" rx="2.608" fill="#F5F5FA"/><rect x="11.74" y="132.031" width="202.144" height="27.387" rx="2.608" fill="#F5F5FA"/><rect x="13.042" y="165.938" width="202.144" height="27.387" rx="2.608" fill="#F5F5FA"/><rect x="13.042" y="205.064" width="76.945" height="59.991" rx="2.608" fill="#F5F5FA"/><path d="M11.826 30.856v11.146h2.197V30.856h-2.197Zm8.393 2.962c-1.067 0-1.895.398-2.373 1.114v-.891h-2.054v7.961h2.054v-4.299c0-1.385.748-1.974 1.752-1.974.923 0 1.576.557 1.576 1.64v4.633h2.054v-4.888c0-2.118-1.322-3.296-3.01-3.296Zm9.663.223-1.943 5.573-1.927-5.573h-2.26l3.025 7.961h2.34l3.026-7.961h-2.261Zm6.531 8.184c2.34 0 4.22-1.83 4.22-4.203s-1.88-4.204-4.22-4.204-4.204 1.831-4.204 4.204c0 2.372 1.863 4.203 4.204 4.203Zm0-2.006c-1.21 0-2.15-.908-2.15-2.197 0-1.29.94-2.198 2.15-2.198 1.226 0 2.166.908 2.166 2.198s-.94 2.197-2.166 2.197Zm6.485-7.134c.7 0 1.274-.573 1.274-1.258 0-.684-.573-1.273-1.274-1.273-.685 0-1.258.589-1.258 1.273 0 .685.573 1.258 1.258 1.258Zm-1.02 8.917h2.055v-7.961h-2.054v7.961Zm7.526.223c1.56 0 2.914-.828 3.598-2.07l-1.783-1.019c-.318.653-1.003 1.051-1.831 1.051-1.226 0-2.134-.907-2.134-2.165 0-1.274.908-2.182 2.134-2.182.812 0 1.497.414 1.815 1.067l1.768-1.035c-.653-1.226-2.007-2.054-3.567-2.054-2.42 0-4.204 1.831-4.204 4.204 0 2.372 1.783 4.203 4.204 4.203Zm6.097-3.36h6.003c.048-.27.08-.54.08-.843 0-2.341-1.672-4.204-4.029-4.204-2.5 0-4.204 1.831-4.204 4.204 0 2.372 1.688 4.203 4.363 4.203 1.529 0 2.723-.62 3.472-1.703l-1.656-.956c-.35.462-.988.796-1.784.796-1.083 0-1.958-.446-2.245-1.497Zm-.032-1.592c.239-1.019.987-1.608 2.086-1.608.86 0 1.72.462 1.975 1.608h-4.06ZM182.435 119.424c0-1.461-1.158-1.836-2.107-2.212v-1.742c.365.094.626.344.793.761l1.21-.709c-.396-.887-1.137-1.367-2.003-1.471v-.929h-.699v.908c-1.096.104-2.076.814-2.076 2.107 0 1.388 1.074 1.857 2.044 2.233.011 0 .021.011.032.011v1.804c-.574-.083-.939-.406-1.158-.949l-1.242.72c.365.97 1.231 1.565 2.4 1.648v.908h.699v-.918c1.21-.146 2.107-.908 2.107-2.17Zm-3.453-3.276c0-.355.229-.626.647-.71v1.461c-.48-.24-.647-.449-.647-.751Zm1.346 4.017v-1.503c.428.198.668.407.668.772 0 .324-.199.626-.668.731Zm4.202-6-1.92.679.355 1.231 1.377-.386v5.78h1.44v-7.304h-1.252Zm4.722 2.661h-.751l.094-1.315h2.807v-1.346h-4.142l-.293 4.059h2.212c.71 0 1.127.407 1.127.991 0 .595-.417.991-1.168.991-.731 0-1.138-.313-1.315-.876l-1.231.72c.417 1.064 1.408 1.565 2.546 1.565 1.377 0 2.608-.835 2.608-2.4s-1.158-2.389-2.494-2.389Zm5.821 4.789c1.868 0 2.921-1.544 2.921-3.798 0-2.253-1.053-3.798-2.921-3.798-1.857 0-2.921 1.545-2.921 3.798 0 2.254 1.064 3.798 2.921 3.798Zm0-1.409c-.981 0-1.481-.845-1.481-2.389 0-1.544.5-2.4 1.481-2.4.981 0 1.492.856 1.492 2.4s-.511 2.389-1.492 2.389Zm4.169 1.398a.885.885 0 1 0-.887-.886c0 .49.396.886.887.886Zm4.165.011c1.867 0 2.921-1.544 2.921-3.798 0-2.253-1.054-3.798-2.921-3.798-1.857 0-2.922 1.545-2.922 3.798 0 2.254 1.065 3.798 2.922 3.798Zm0-1.409c-.981 0-1.482-.845-1.482-2.389 0-1.544.501-2.4 1.482-2.4s1.492.856 1.492 2.4-.511 2.389-1.492 2.389Zm6.372 1.409c1.868 0 2.922-1.544 2.922-3.798 0-2.253-1.054-3.798-2.922-3.798-1.857 0-2.921 1.545-2.921 3.798 0 2.254 1.064 3.798 2.921 3.798Zm0-1.409c-.98 0-1.481-.845-1.481-2.389 0-1.544.501-2.4 1.481-2.4.981 0 1.492.856 1.492 2.4s-.511 2.389-1.492 2.389ZM180.747 251.143c0-1.461-1.158-1.837-2.107-2.212v-1.743c.365.094.626.345.793.762l1.21-.709c-.397-.887-1.137-1.367-2.003-1.472v-.928h-.699v.908c-1.096.104-2.077.813-2.077 2.107 0 1.388 1.075 1.857 2.045 2.233.011 0 .021.01.032.01v1.805c-.574-.083-.939-.407-1.158-.949l-1.242.72c.365.97 1.231 1.565 2.4 1.648v.908h.699v-.918c1.21-.146 2.107-.908 2.107-2.17Zm-3.453-3.276c0-.355.229-.626.647-.71v1.461c-.48-.24-.647-.449-.647-.751Zm1.346 4.016v-1.502c.427.198.667.407.667.772 0 .323-.198.626-.667.73Zm2.449 1.305h4.883V251.8h-2.744l1.429-1.429c.689-.689 1.2-1.451 1.2-2.338 0-1.46-1.158-2.295-2.41-2.295-.991 0-1.941.501-2.41 1.544l1.21.71c.24-.522.657-.856 1.221-.856.553 0 .949.365.949.95 0 .49-.365.97-.835 1.46l-2.493 2.567v1.075Zm7.851-4.643h-.752l.094-1.315h2.807v-1.346h-4.142l-.292 4.059h2.212c.709 0 1.126.407 1.126.991 0 .595-.417.991-1.168.991-.73 0-1.137-.313-1.315-.876l-1.231.72c.418 1.064 1.409 1.565 2.546 1.565 1.377 0 2.608-.835 2.608-2.4s-1.158-2.389-2.493-2.389Zm5.821 4.789c1.867 0 2.921-1.545 2.921-3.798 0-2.254-1.054-3.798-2.921-3.798-1.858 0-2.922 1.544-2.922 3.798 0 2.253 1.064 3.798 2.922 3.798Zm0-1.409c-.981 0-1.482-.845-1.482-2.389 0-1.544.501-2.4 1.482-2.4.98 0 1.491.856 1.491 2.4s-.511 2.389-1.491 2.389Zm4.168 1.398a.886.886 0 1 0 .002-1.772.886.886 0 0 0-.002 1.772Zm4.165.011c1.868 0 2.921-1.545 2.921-3.798 0-2.254-1.053-3.798-2.921-3.798-1.857 0-2.921 1.544-2.921 3.798 0 2.253 1.064 3.798 2.921 3.798Zm0-1.409c-.981 0-1.481-.845-1.481-2.389 0-1.544.5-2.4 1.481-2.4.981 0 1.492.856 1.492 2.4s-.511 2.389-1.492 2.389Zm6.373 1.409c1.867 0 2.921-1.545 2.921-3.798 0-2.254-1.054-3.798-2.921-3.798-1.857 0-2.921 1.544-2.921 3.798 0 2.253 1.064 3.798 2.921 3.798Zm0-1.409c-.981 0-1.482-.845-1.482-2.389 0-1.544.501-2.4 1.482-2.4s1.492.856 1.492 2.4-.511 2.389-1.492 2.389Z" fill="#35373D"/><defs><clipPath id="a"><rect x="82.957" width="228.227" height="268.656" rx="1.304" transform="rotate(17.986 82.957 0)" fill="#fff"/></clipPath><clipPath id="b"><rect x="39.753" y="12.086" width="228.227" height="268.656" rx="1.304" transform="rotate(5.715 39.753 12.086)" fill="#fff"/></clipPath></defs></svg>