<svg fill="none" xmlns="http://www.w3.org/2000/svg" viewBox="0 0 300 354"><rect width="300" height="353.143" rx="1.714" fill="#fff"/><rect x="15.432" y="48.001" width="102.857" height="36" rx="3.429" fill="#F5F5FA"/><rect x="15.432" y="92.572" width="102.857" height="36" rx="3.429" fill="#F5F5FA"/><rect x="15.432" y="150.857" width="265.714" height="36" rx="3.429" fill="#F5F5FA"/><rect x="17.144" y="195.427" width="265.714" height="36" rx="3.429" fill="#F5F5FA"/><rect x="17.144" y="246.858" width="101.143" height="78.857" rx="3.429" fill="#F5F5FA"/><path d="M23.114 33.43h3.119l-3.245-5.527c1.675-.774 2.826-2.428 2.826-4.27 0-2.679-2.177-4.855-4.877-4.855h-5.86v14.651h2.888v-5.086h2.198l2.951 5.086Zm-5.149-11.952h2.972c1.089 0 1.989.941 1.989 2.155 0 1.215-.9 2.177-1.989 2.177h-2.972v-4.332Zm11.331 7.828h7.891c.063-.356.105-.712.105-1.11 0-3.076-2.198-5.525-5.296-5.525-3.286 0-5.525 2.407-5.525 5.526 0 3.118 2.218 5.525 5.735 5.525 2.01 0 3.579-.816 4.563-2.24l-2.177-1.255c-.46.607-1.298 1.046-2.344 1.046-1.424 0-2.575-.586-2.952-1.967Zm-.041-2.093c.314-1.34 1.297-2.114 2.742-2.114 1.13 0 2.26.607 2.595 2.114h-5.337Zm14.56 6.51c2.051 0 3.83-1.09 4.73-2.722l-2.344-1.34c-.418.859-1.318 1.382-2.407 1.382-1.611 0-2.805-1.193-2.805-2.846 0-1.675 1.194-2.868 2.805-2.868 1.068 0 1.968.544 2.386 1.402l2.324-1.36c-.858-1.612-2.638-2.7-4.689-2.7-3.181 0-5.526 2.407-5.526 5.526 0 3.118 2.345 5.525 5.526 5.525Zm8.015-4.417h7.89c.064-.356.105-.712.105-1.11 0-3.076-2.197-5.525-5.295-5.525-3.286 0-5.526 2.407-5.526 5.526 0 3.118 2.219 5.525 5.735 5.525 2.01 0 3.58-.816 4.563-2.24l-2.177-1.255c-.46.607-1.297 1.046-2.344 1.046-1.423 0-2.574-.586-2.951-1.967Zm-.042-2.093c.314-1.34 1.298-2.114 2.742-2.114 1.13 0 2.26.607 2.595 2.114h-5.337Zm11-5.505c.921 0 1.675-.754 1.675-1.654 0-.9-.754-1.674-1.675-1.674-.9 0-1.653.774-1.653 1.674 0 .9.753 1.654 1.653 1.654Zm-1.34 11.721h2.7V22.964h-2.7v10.465ZM72.45 22.671c-1.529 0-2.638.565-3.391 1.528v-1.235h-2.7v14.651h2.7v-5.42c.753.962 1.862 1.527 3.39 1.527 2.805 0 5.108-2.407 5.108-5.526 0-3.118-2.303-5.525-5.108-5.525Zm-.503 8.477c-1.653 0-2.888-1.193-2.888-2.951 0-1.759 1.235-2.952 2.888-2.952 1.675 0 2.91 1.193 2.91 2.951 0 1.759-1.235 2.952-2.91 2.952Zm13.014-5.589v-2.595h-2.366v-2.93l-2.7.816v2.114h-1.82v2.595h1.82v4.354c0 2.826 1.277 3.935 5.066 3.516V30.98c-1.55.084-2.366.063-2.366-1.067v-4.354h2.366ZM242.888 134.456c0-1.92-1.522-2.414-2.77-2.908v-2.29c.48.123.822.452 1.042 1.001l1.591-.933c-.521-1.165-1.495-1.796-2.633-1.933v-1.221h-.919v1.193c-1.44.137-2.729 1.07-2.729 2.771 0 1.824 1.412 2.441 2.688 2.934.013 0 .027.014.041.014v2.373c-.755-.11-1.235-.535-1.523-1.248l-1.632.946c.48 1.275 1.619 2.057 3.155 2.167v1.193h.919v-1.207c1.59-.192 2.77-1.193 2.77-2.852Zm-4.54-4.307c0-.466.302-.823.851-.932v1.92c-.631-.316-.851-.59-.851-.988Zm1.77 5.28v-1.975c.562.261.877.535.877 1.015 0 .425-.26.823-.877.96Zm3.219 1.715h6.418v-1.824h-3.607l1.879-1.879c.905-.905 1.577-1.907 1.577-3.072 0-1.92-1.522-3.017-3.168-3.017-1.302 0-2.55.658-3.168 2.029l1.591.933c.316-.686.864-1.125 1.605-1.125.727 0 1.248.48 1.248 1.248 0 .645-.48 1.276-1.097 1.92l-3.278 3.374v1.413Zm13.815-6.46c0-1.961-1.412-3.332-3.483-3.332-2.044 0-3.47 1.371-3.47 3.332 0 1.934 1.385 3.292 3.374 3.333l-2.14 3.127h2.167l2.99-4.512h-.014c.37-.535.576-1.207.576-1.948Zm-5.074 0c0-.96.713-1.55 1.591-1.55.905 0 1.604.576 1.604 1.55 0 .974-.699 1.564-1.604 1.564-.878 0-1.591-.59-1.591-1.564Zm12.393 0c0-1.961-1.413-3.332-3.484-3.332-2.043 0-3.469 1.371-3.469 3.332 0 1.934 1.385 3.292 3.373 3.333l-2.139 3.127h2.167l2.99-4.512h-.014c.37-.535.576-1.207.576-1.948Zm-5.074 0c0-.96.713-1.55 1.59-1.55.906 0 1.605.576 1.605 1.55 0 .974-.699 1.564-1.605 1.564-.877 0-1.59-.59-1.59-1.564Zm5.047 6.638a1.165 1.165 0 1 0 0-2.334 1.165 1.165 0 0 0 0 2.334Zm7.874-6.638c0-1.961-1.412-3.332-3.483-3.332-2.044 0-3.47 1.371-3.47 3.332 0 1.934 1.385 3.292 3.374 3.333l-2.14 3.127h2.167l2.99-4.512h-.014c.37-.535.576-1.207.576-1.948Zm-5.074 0c0-.96.713-1.55 1.591-1.55.905 0 1.604.576 1.604 1.55 0 .974-.699 1.564-1.604 1.564-.878 0-1.591-.59-1.591-1.564Zm12.393 0c0-1.961-1.413-3.332-3.484-3.332-2.043 0-3.469 1.371-3.469 3.332 0 1.934 1.385 3.292 3.373 3.333l-2.139 3.127h2.167l2.99-4.512h-.014c.37-.535.576-1.207.576-1.948Zm-5.074 0c0-.96.713-1.55 1.59-1.55.906 0 1.605.576 1.605 1.55 0 .974-.699 1.564-1.605 1.564-.877 0-1.59-.59-1.59-1.564ZM243.506 307.598c0-1.92-1.523-2.414-2.771-2.908v-2.29c.48.123.823.453 1.043 1.001l1.591-.932c-.522-1.166-1.495-1.797-2.634-1.934v-1.221h-.918v1.193c-1.44.138-2.73 1.07-2.73 2.771 0 1.824 1.413 2.441 2.688 2.935.014 0 .028.013.042.013v2.373c-.755-.11-1.235-.535-1.523-1.248l-1.632.946c.48 1.276 1.619 2.057 3.155 2.167v1.193h.918v-1.207c1.591-.192 2.771-1.193 2.771-2.852Zm-4.54-4.307c0-.466.302-.822.851-.932v1.92c-.631-.316-.851-.59-.851-.988Zm1.769 5.28v-1.974c.563.26.878.534.878 1.014 0 .426-.26.823-.878.96Zm3.22 1.715h6.418v-1.824h-3.607l1.879-1.879c.905-.905 1.577-1.906 1.577-3.072 0-1.92-1.522-3.017-3.168-3.017-1.303 0-2.551.658-3.168 2.029l1.591.933c.316-.686.864-1.125 1.605-1.125.727 0 1.248.48 1.248 1.248 0 .645-.48 1.276-1.097 1.92l-3.278 3.374v1.413Zm13.815-6.46c0-1.961-1.413-3.332-3.483-3.332-2.044 0-3.47 1.371-3.47 3.332 0 1.934 1.385 3.292 3.374 3.333l-2.14 3.127h2.167l2.99-4.512h-.014c.37-.535.576-1.207.576-1.948Zm-5.074 0c0-.96.713-1.549 1.591-1.549.905 0 1.604.576 1.604 1.549 0 .974-.699 1.564-1.604 1.564-.878 0-1.591-.59-1.591-1.564Zm12.393 0c0-1.961-1.413-3.332-3.484-3.332-2.043 0-3.469 1.371-3.469 3.332 0 1.934 1.385 3.292 3.373 3.333l-2.139 3.127h2.167l2.989-4.512h-.013c.37-.535.576-1.207.576-1.948Zm-5.075 0c0-.96.714-1.549 1.591-1.549.905 0 1.605.576 1.605 1.549 0 .974-.7 1.564-1.605 1.564-.877 0-1.591-.59-1.591-1.564Zm5.047 6.638a1.165 1.165 0 1 0 0-2.331 1.164 1.164 0 1 0 0 2.331Zm7.875-6.638c0-1.961-1.413-3.332-3.483-3.332-2.044 0-3.47 1.371-3.47 3.332 0 1.934 1.385 3.292 3.374 3.333l-2.14 3.127h2.167l2.99-4.512h-.014c.37-.535.576-1.207.576-1.948Zm-5.074 0c0-.96.713-1.549 1.591-1.549.905 0 1.604.576 1.604 1.549 0 .974-.699 1.564-1.604 1.564-.878 0-1.591-.59-1.591-1.564Zm12.393 0c0-1.961-1.413-3.332-3.484-3.332-2.043 0-3.469 1.371-3.469 3.332 0 1.934 1.385 3.292 3.373 3.333l-2.139 3.127h2.167l2.989-4.512h-.013c.37-.535.576-1.207.576-1.948Zm-5.075 0c0-.96.714-1.549 1.591-1.549.905 0 1.605.576 1.605 1.549 0 .974-.7 1.564-1.605 1.564-.877 0-1.591-.59-1.591-1.564Z" fill="#35373D"/><path d="m181.064 48.698-9.805.005.012 25.235 6.453-.003-.004-7.57 3.353-.002c5.047-.003 9.011-3.645 9.008-8.837-.002-5.191-3.969-8.83-9.017-8.828Zm.006 11.536-3.353.002-.002-5.372 3.352-.001c1.442-.001 2.56 1.08 2.561 2.666.001 1.586-1.116 2.704-2.558 2.705ZM208.68 73.92l6.958-.003-8.339-25.231-7.859.003-8.316 25.24 6.994-.004 1.079-3.641 8.4-.004 1.083 3.64Zm-7.827-9.189 2.52-8.581 2.563 8.579-5.083.002ZM220.502 48.68l.012 25.235 6.453-.003-.012-25.236-6.453.003ZM244.237 48.668l-10.274.005.012 25.236 10.274-.005c6.958-.004 12.255-5.486 12.251-12.624-.003-7.138-5.305-12.615-12.263-12.612Zm.009 18.999-3.641.002-.006-12.762 3.641-.002c3.461-.002 5.95 2.52 5.952 6.378.001 3.858-2.485 6.382-5.946 6.384Z" fill="#00834E"/><rect x="157.581" y="36.365" width="112.327" height="49.294" rx="5.657" stroke="#00834E" stroke-width="3.232"/><rect x="162.43" y="41.213" width="102.63" height="40.405" rx="1.616" stroke="#00834E" stroke-width="2.02"/></svg>